<?xml version="1.0" encoding="utf-8"?>
<!-- Generator: Adobe Illustrator 18.0.0, SVG Export Plug-In . SVG Version: 6.00 Build 0)  -->
<!DOCTYPE svg PUBLIC "-//W3C//DTD SVG 1.1//EN" "http://www.w3.org/Graphics/SVG/1.1/DTD/svg11.dtd">
<svg version="1.1" id="ecommerce_1_" xmlns="http://www.w3.org/2000/svg" xmlns:xlink="http://www.w3.org/1999/xlink" x="0px"
	 y="0px" viewBox="0 0 115 115" style="enable-background:new 0 0 115 115;" xml:space="preserve">
<style type="text/css">
	.st0{fill:#FFEEAD;}
	.st1{fill:#C9B77D;}
	.st2{fill:#99734A;}
	.st3{fill:#FF6F69;}
	.st4{fill:#96CEB4;}
	.st5{fill:none;}
	.st6{fill:#AA9865;}
	.st7{fill:#71A58A;}
	.st8{fill:#FFCC5C;}
	.st9{fill:#825E3B;}
	.st10{fill:#639376;}
	.st11{fill:#E05858;}
	.st12{fill:#C1821E;}
	.st13{fill:#D6A041;}
	.st14{fill:#B28559;}
	.st15{fill:#BF4343;}
	.st16{fill:#D3C089;}
	.st17{fill:#7C5C3C;}
	.st18{fill:#FDCC5C;}
	.st19{fill:#FFFFFF;}
</style>
<g id="account_1_">
	<g>
		<g>
			<g>
				<path class="st0" d="M94.651,0H14.967C8.767,0,3.741,5.026,3.741,11.226v92.548c0,6.2,5.026,11.226,11.226,11.226h79.684
					c6.2,0,11.226-5.026,11.226-11.226V11.226C105.877,5.026,100.851,0,94.651,0z"/>
			</g>
			<g>
				<path class="st1" d="M102.825,35.677l-36.078,48.05c-1.14,1.519-2.832,5.945-2.531,8.567c0.005,0.046,0.009,0.091,0.016,0.136
					c0.045,0.308,0.119,0.588,0.227,0.833c0.018,0.04,0.04,0.075,0.06,0.113c0.124,0.24,0.272,0.452,0.475,0.604
					c0.122,0.091,0.258,0.159,0.404,0.213c0.05,0.019,0.106,0.028,0.159,0.043c0.099,0.027,0.199,0.051,0.307,0.064
					c0.071,0.009,0.145,0.011,0.219,0.014c0.097,0.003,0.195,0.003,0.296-0.003c0.088-0.005,0.176-0.012,0.267-0.024
					c0.092-0.012,0.186-0.029,0.281-0.047c0.105-0.02,0.21-0.04,0.318-0.067c0.072-0.018,0.146-0.042,0.218-0.063
					c2.546-0.739,5.836-3.275,6.887-4.674l0.488-0.65l31.04-41.341v-13.43C104.685,34.127,103.568,34.688,102.825,35.677z"/>
			</g>
			<g>
				<path class="st4" d="M94.651,0H14.967C8.767,0,3.741,5.026,3.741,11.226v0.791h102.137v-0.791C105.877,5.026,100.851,0,94.651,0
					z"/>
			</g>
			<g>
				<g>
					<circle class="st0" cx="15.353" cy="6.2" r="3.1"/>
				</g>
				<g>
					<circle class="st3" cx="22.858" cy="6.2" r="3.1"/>
				</g>
				<g>
					<circle class="st7" cx="30.363" cy="6.2" r="3.1"/>
				</g>
			</g>
		</g>
		<g>
			<g>
				<circle class="st4" cx="54.809" cy="46.834" r="31.083"/>
			</g>
			<g>
				<g>
					<path class="st3" d="M55.724,61.751c-7.664,0-14.104,5.175-16.057,12.216c4.483,2.507,9.641,3.95,15.142,3.95
						c6.147,0,11.86-1.808,16.684-4.886C69.247,66.473,63.044,61.751,55.724,61.751z"/>
				</g>
				<g>
					<ellipse class="st1" cx="54.809" cy="67.638" rx="6.684" ry="5.887"/>
				</g>
				<g>
					<g>
						<circle class="st0" cx="54.809" cy="46.957" r="20.932"/>
					</g>
					<g>
						<path class="st2" d="M54.809,26.026c-11.56,0-20.932,9.371-20.932,20.932c0,0.374,0.037,0.739,0.056,1.109
							c8.564-1.16,16.724-5.272,22.672-11.551c-0.61,3.211-1.889,6.293-3.731,8.992c7.432-0.747,14.426-4.7,19.111-10.495
							C68.203,29.585,61.926,26.026,54.809,26.026z"/>
					</g>
					<g>
						<ellipse class="st2" cx="46.092" cy="52.909" rx="2.42" ry="3.111"/>
					</g>
					<g>
						<ellipse class="st2" cx="61.879" cy="52.909" rx="2.42" ry="3.111"/>
					</g>
					<g>
						<path class="st2" d="M67.749,30.525l-1.029,6.521c0,0,7.315,9.049,8.155,15.846c0.556-1.883,0.867-3.871,0.867-5.934
							C75.741,40.287,72.61,34.358,67.749,30.525z"/>
					</g>
				</g>
			</g>
		</g>
		<g>
			<g>
				<path class="st3" d="M26.49,83.678h-6.776c-0.848,0-1.542,0.694-1.542,1.542c0,0.848,0.694,1.542,1.542,1.542h6.776
					c0.848,0,1.542-0.694,1.542-1.542C28.032,84.372,27.338,83.678,26.49,83.678z"/>
			</g>
			<g>
				<path class="st3" d="M89.904,83.678H33.795c-0.848,0-1.542,0.694-1.542,1.542c0,0.848,0.694,1.542,1.542,1.542h56.109
					c0.848,0,1.542-0.694,1.542-1.542C91.446,84.372,90.752,83.678,89.904,83.678z"/>
			</g>
			<path class="st11" d="M76.358,86.762l2.315-3.083H66.784l-0.037,0.049c-0.47,0.626-1.028,1.749-1.504,3.034H76.358z"/>
			<g>
				<path class="st3" d="M26.49,92.158h-6.776c-0.848,0-1.542,0.694-1.542,1.542c0,0.848,0.694,1.542,1.542,1.542h6.776
					c0.848,0,1.542-0.694,1.542-1.542C28.032,92.851,27.338,92.158,26.49,92.158z"/>
			</g>
			<g>
				<path class="st3" d="M89.904,92.158H33.795c-0.848,0-1.542,0.694-1.542,1.542c0,0.848,0.694,1.542,1.542,1.542h56.109
					c0.848,0,1.542-0.694,1.542-1.542C91.446,92.851,90.752,92.158,89.904,92.158z"/>
			</g>
			<path class="st11" d="M64.207,92.157c0.004,0.045,0.004,0.093,0.009,0.136c0.005,0.046,0.01,0.091,0.016,0.136
				c0.045,0.308,0.119,0.588,0.227,0.833c0.018,0.04,0.04,0.075,0.06,0.113c0.123,0.24,0.272,0.452,0.475,0.604
				c0.122,0.091,0.258,0.159,0.404,0.213c0.05,0.019,0.106,0.028,0.159,0.043c0.099,0.027,0.199,0.051,0.307,0.064
				c0.071,0.009,0.145,0.011,0.219,0.014c0.096,0.003,0.195,0.003,0.296-0.003c0.088-0.005,0.176-0.012,0.267-0.024
				c0.092-0.012,0.186-0.029,0.281-0.047c0.105-0.02,0.21-0.04,0.318-0.067c0.072-0.018,0.146-0.042,0.218-0.063
				c1.206-0.35,2.575-1.107,3.798-1.952H64.207z"/>
			<g>
				<path class="st3" d="M26.49,100.637h-6.776c-0.848,0-1.542,0.694-1.542,1.542c0,0.848,0.694,1.542,1.542,1.542h6.776
					c0.848,0,1.542-0.694,1.542-1.542C28.032,101.33,27.338,100.637,26.49,100.637z"/>
			</g>
			<g>
				<path class="st3" d="M89.904,100.637H33.795c-0.848,0-1.542,0.694-1.542,1.542c0,0.848,0.694,1.542,1.542,1.542h56.109
					c0.848,0,1.542-0.694,1.542-1.542C91.446,101.33,90.752,100.637,89.904,100.637z"/>
			</g>
		</g>
		<g>
			<path class="st1" d="M59.065,61.549c-0.186-0.287-0.567-0.369-0.854-0.183c-0.015,0.01-1.529,0.972-3.391,0.972
				c-1.85,0-3.268-0.953-3.282-0.963c-0.282-0.192-0.665-0.121-0.858,0.16c-0.192,0.28-0.122,0.664,0.157,0.858
				c0.07,0.048,1.735,1.18,3.983,1.18c2.239,0,3.99-1.124,4.064-1.171C59.17,62.216,59.25,61.835,59.065,61.549z"/>
		</g>
	</g>
	<g>
		<g>
			<path class="st3" d="M109.283,30.091c-2.091-1.57-4.997-1.262-6.458,0.684l-36.078,48.05c-1.461,1.946-3.844,8.682-1.753,10.252
				c2.091,1.57,7.895-2.598,9.356-4.544l36.078-48.05C111.889,34.537,111.373,31.66,109.283,30.091z"/>
		</g>
		<g>
			<path class="st0" d="M67.235,78.175l-0.488,0.65c-1.461,1.946-3.844,8.682-1.753,10.252c2.091,1.57,7.895-2.598,9.356-4.544
				l0.488-0.65L67.235,78.175z"/>
		</g>
		<g>
			<path class="st2" d="M64.34,85.055c-0.31,1.762-0.232,3.357,0.654,4.022c0.886,0.665,2.439,0.295,4.045-0.494L64.34,85.055z"/>
		</g>
		<g>
			<path class="st4" d="M109.283,30.091c-2.091-1.57-4.997-1.262-6.458,0.684l-3.872,5.157l7.603,5.708l3.872-5.157
				C111.889,34.537,111.374,31.66,109.283,30.091z"/>
		</g>
		<g>
			
				<rect x="102.326" y="33.174" transform="matrix(0.6004 -0.7997 0.7997 0.6004 10.9858 97.8414)" class="st0" width="2.145" height="9.507"/>
		</g>
	</g>
</g>
</svg>
