<?xml version="1.0" encoding="utf-8"?>
<!-- Generator: Adobe Illustrator 19.2.0, SVG Export Plug-In . SVG Version: 6.00 Build 0)  -->
<svg version="1.1" id="Layer_1" xmlns="http://www.w3.org/2000/svg" xmlns:xlink="http://www.w3.org/1999/xlink" x="0px" y="0px"
	 viewBox="0 0 500 500" style="enable-background:new 0 0 500 500;" xml:space="preserve">
<style type="text/css">
	.st0{fill:#ECF4F7;}
	.st1{fill:#1C1D21;}
	.st2{fill:#83E1E5;}
	.st3{fill:#AAB1BA;}
	.st4{fill:none;stroke:#1C1D21;stroke-width:10;stroke-linecap:round;stroke-linejoin:round;stroke-miterlimit:10;}
	.st5{fill:#FDDF7F;}
	.st6{fill:#FFFFFF;}
</style>
<g>
	<g>
		<g>
			<g>
				<path class="st3" d="M267,292.1l0-16.3c0-6.1-4.9-11-11-11h-11.2c-4.7,0-8.9-2.9-10.4-7.3c-1-3.1-2.3-6.1-3.7-9.1
					c-2.1-4.2-1.1-9.2,2.2-12.5l7.9-7.9c4.3-4.3,4.3-11.3,0-15.6l-6.7-6.7c-4.3-4.3-11.3-4.3-15.6,0l-7.9,7.9
					c-3.3,3.3-8.3,4.2-12.5,2.2c-2.9-1.5-6-2.7-9.1-3.7c-4.4-1.5-7.3-5.7-7.3-10.4l0-11.2c0-6.1-4.9-11-11-11l-9.4,0
					c-6.1,0-11,4.9-11,11l0,11.2c0,4.7-2.9,8.9-7.3,10.4c-3.1,1-6.1,2.3-9.1,3.7c-4.2,2.1-9.2,1.1-12.5-2.2l-7.9-7.9
					c-4.3-4.3-11.3-4.3-15.6,0l-6.7,6.7c-4.3,4.3-4.3,11.3,0,15.6l7.9,7.9c3.3,3.3,4.2,8.3,2.2,12.5c-1.5,2.9-2.7,6-3.7,9.1
					c-1.5,4.4-5.7,7.3-10.4,7.3l-11.2,0c-6.1,0-11,4.9-11,11l0,16.3H267z"/>
			</g>
		</g>
		<g>
			<g>
				<path class="st1" d="M267,297.1H65c-2.8,0-5-2.2-5-5v-16.3c0-8.8,7.2-16,16-16h11.2c2.6,0,4.8-1.6,5.6-3.9
					c1.1-3.3,2.5-6.6,4-9.7c1.1-2.2,0.6-4.9-1.2-6.7l-7.9-7.9c-3-3-4.7-7-4.7-11.3c0-4.3,1.7-8.3,4.7-11.3l6.7-6.7
					c6.2-6.2,16.4-6.2,22.6,0l7.9,7.9c1.8,1.8,4.5,2.3,6.7,1.2c3.1-1.5,6.4-2.9,9.7-4c2.4-0.8,3.9-3.1,3.9-5.6v-11.2
					c0-8.8,7.2-16,16-16h9.4c8.8,0,16,7.2,16,16v11.2c0,2.6,1.6,4.8,3.9,5.6c3.3,1.1,6.6,2.5,9.7,4c2.2,1.1,4.9,0.6,6.7-1.2l7.9-7.9
					c6.2-6.2,16.4-6.2,22.6,0l6.7,6.7c6.2,6.2,6.2,16.4,0,22.6l-7.9,7.9c-1.8,1.8-2.3,4.5-1.2,6.7c1.5,3.1,2.9,6.4,4,9.7
					c0.8,2.4,3.1,3.9,5.6,3.9H256c8.8,0,16,7.2,16,16v16.3C272,294.8,269.8,297.1,267,297.1z M70,287.1h192v-11.3c0-3.3-2.7-6-6-6
					h-11.2c-6.9,0-13-4.3-15.1-10.8c-1-2.9-2.1-5.7-3.5-8.4c-3-6.1-1.8-13.4,3.1-18.3l7.9-7.9c2.3-2.3,2.3-6.2,0-8.5l-6.7-6.7
					c-2.3-2.3-6.2-2.3-8.5,0l-7.9,7.9c-4.9,4.9-12.2,6.1-18.3,3.1c-2.7-1.3-5.5-2.5-8.4-3.5c-6.4-2.2-10.8-8.2-10.8-15.1v-11.2
					c0-3.3-2.7-6-6-6h-9.4c-3.3,0-6,2.7-6,6v11.2c0,6.9-4.3,13-10.8,15.1c-2.9,1-5.7,2.1-8.4,3.5c-6.1,3-13.4,1.8-18.3-3.1l-7.9-7.9
					c-2.3-2.3-6.2-2.3-8.5,0l-6.7,6.7c-1.1,1.1-1.8,2.6-1.8,4.2c0,1.6,0.6,3.1,1.8,4.2l7.9,7.9c4.9,4.9,6.1,12.2,3.1,18.3
					c-1.3,2.7-2.5,5.5-3.5,8.4c-2.2,6.4-8.2,10.8-15.1,10.8H76c-3.3,0-6,2.7-6,6V287.1z"/>
			</g>
		</g>
		<g>
			<g>
				<path class="st5" d="M127.1,292.1c0-21.5,17.5-39,39-39c21.5,0,39,17.5,39,39L127.1,292.1z"/>
			</g>
		</g>
		<g>
			<g>
				<path class="st1" d="M205,297.1h-77.9c-2.8,0-5-2.2-5-5c0-24.2,19.7-44,44-44c24.2,0,44,19.7,44,44
					C210,294.8,207.7,297.1,205,297.1z M132.4,287.1h67.2c-2.4-16.4-16.6-29-33.6-29S134.9,270.7,132.4,287.1z"/>
			</g>
		</g>
	</g>
	<g>
		<g>
			<path class="st2" d="M40,336v104c0,11,9,20,20,20h380c11,0,20-9,20-20V336H40z"/>
		</g>
	</g>
	<g>
		<g>
			<path class="st2" d="M460,128V62.4c0-11-9-20-20-20H60c-11,0-20,9-20,20V128H460z"/>
		</g>
	</g>
	<g>
		<g>
			<path class="st1" d="M465,500H35c-19.3,0-35-15.7-35-35V35C0,15.7,15.7,0,35,0h430c19.3,0,35,15.7,35,35v430
				C500,484.3,484.3,500,465,500z M35,10c-13.8,0-25,11.2-25,25v430c0,13.8,11.2,25,25,25h430c13.8,0,25-11.2,25-25V35
				c0-13.8-11.2-25-25-25H35z"/>
		</g>
	</g>
	<g>
		<g>
			<g>
				<path class="st1" d="M40,97.7c-2.8,0-5-2.2-5-5V62.4c0-13.8,11.2-25,25-25h4.3c2.8,0,5,2.2,5,5c0,2.8-2.2,5-5,5H60
					c-8.3,0-15,6.7-15,15v30.3C45,95.4,42.8,97.7,40,97.7z"/>
			</g>
		</g>
		<g>
			<g>
				<path class="st1" d="M104,47.4H89c-2.8,0-5-2.2-5-5c0-2.8,2.2-5,5-5h15c2.8,0,5,2.2,5,5C109,45.1,106.8,47.4,104,47.4z"/>
			</g>
		</g>
	</g>
	<g>
		<g>
			<g>
				<path class="st1" d="M440,465h-4.3c-2.8,0-5-2.2-5-5s2.2-5,5-5h4.3c8.3,0,15-6.7,15-15v-30.3c0-2.8,2.2-5,5-5s5,2.2,5,5V440
					C465,453.8,453.8,465,440,465z"/>
			</g>
		</g>
		<g>
			<g>
				<path class="st1" d="M411,465h-15c-2.8,0-5-2.2-5-5s2.2-5,5-5h15c2.8,0,5,2.2,5,5S413.8,465,411,465z"/>
			</g>
		</g>
	</g>
	<g>
		<g>
			<g>
				<path class="st6" d="M128.3,368.3H79.7c-5.5,0-10,4.5-10,10v33.3c0,5.5,4.5,10,10,10h48.7c5.5,0,10-4.5,10-10v-33.3
					C138.3,372.8,133.9,368.3,128.3,368.3z"/>
			</g>
		</g>
		<g>
			<g>
				<path class="st6" d="M225.7,368.3H177c-5.5,0-10,4.5-10,10v33.3c0,5.5,4.5,10,10,10h48.7c5.5,0,10-4.5,10-10v-33.3
					C235.7,372.8,231.2,368.3,225.7,368.3z"/>
			</g>
		</g>
		<g>
			<g>
				<path class="st6" d="M323,368.3h-48.7c-5.5,0-10,4.5-10,10v33.3c0,5.5,4.5,10,10,10H323c5.5,0,10-4.5,10-10v-33.3
					C333,372.8,328.5,368.3,323,368.3z"/>
			</g>
		</g>
		<g>
			<g>
				<path class="st6" d="M420.3,368.3h-48.7c-5.5,0-10,4.5-10,10v33.3c0,5.5,4.5,10,10,10h48.7c5.5,0,10-4.5,10-10v-33.3
					C430.3,372.8,425.9,368.3,420.3,368.3z"/>
			</g>
		</g>
	</g>
	<g>
		<g>
			<path class="st1" d="M445,345.7H55c-11,0-20-9-20-20V140.3c0-11,9-20,20-20h390c11,0,20,9,20,20v185.4
				C465,336.8,456,345.7,445,345.7z M55,130.3c-5.5,0-10,4.5-10,10v185.4c0,5.5,4.5,10,10,10h390c5.5,0,10-4.5,10-10V140.3
				c0-5.5-4.5-10-10-10H55z"/>
		</g>
	</g>
	<g>
		<g>
			<path class="st5" d="M40,292v33.7c0,8.3,6.7,15,15,15h390c8.3,0,15-6.7,15-15V292H40z"/>
		</g>
	</g>
	<g>
		<g>
			<path class="st1" d="M445,345.7H55c-11,0-20-9-20-20V292c0-2.8,2.2-5,5-5h420c2.8,0,5,2.2,5,5v33.7
				C465,336.8,456,345.7,445,345.7z M45,297v28.7c0,5.5,4.5,10,10,10h390c5.5,0,10-4.5,10-10V297H45z"/>
		</g>
	</g>
	<g>
		<g>
			<g>
				<path class="st1" d="M430.3,184.5h-140c-2.8,0-5-2.2-5-5c0-2.8,2.2-5,5-5h140c2.8,0,5,2.2,5,5
					C435.3,182.3,433.1,184.5,430.3,184.5z"/>
			</g>
		</g>
		<g>
			<g>
				<path class="st1" d="M430.3,223.8h-140c-2.8,0-5-2.2-5-5c0-2.8,2.2-5,5-5h140c2.8,0,5,2.2,5,5
					C435.3,221.6,433.1,223.8,430.3,223.8z"/>
			</g>
		</g>
		<g>
			<g>
				<path class="st1" d="M430.3,263.2h-140c-2.8,0-5-2.2-5-5c0-2.8,2.2-5,5-5h140c2.8,0,5,2.2,5,5
					C435.3,260.9,433.1,263.2,430.3,263.2z"/>
			</g>
		</g>
	</g>
</g>
</svg>
