<?xml version="1.0" encoding="utf-8"?>
<!-- Generator: Adobe Illustrator 18.0.0, SVG Export Plug-In . SVG Version: 6.00 Build 0)  -->
<!DOCTYPE svg PUBLIC "-//W3C//DTD SVG 1.1//EN" "http://www.w3.org/Graphics/SVG/1.1/DTD/svg11.dtd">
<svg version="1.1" id="ecommerce_1_" xmlns="http://www.w3.org/2000/svg" xmlns:xlink="http://www.w3.org/1999/xlink" x="0px"
	 y="0px" viewBox="0 0 115 115" style="enable-background:new 0 0 115 115;" xml:space="preserve">
<style type="text/css">
	.st0{fill:#FFEEAD;}
	.st1{fill:#C9B77D;}
	.st2{fill:#99734A;}
	.st3{fill:#FF6F69;}
	.st4{fill:#96CEB4;}
	.st5{fill:none;}
	.st6{fill:#AA9865;}
	.st7{fill:#71A58A;}
	.st8{fill:#FFCC5C;}
	.st9{fill:#825E3B;}
	.st10{fill:#639376;}
	.st11{fill:#E05858;}
	.st12{fill:#C1821E;}
	.st13{fill:#D6A041;}
	.st14{fill:#B28559;}
	.st15{fill:#BF4343;}
	.st16{fill:#D3C089;}
	.st17{fill:#7C5C3C;}
	.st18{fill:#FDCC5C;}
	.st19{fill:#FFFFFF;}
</style>
<g id="brand_new_1_">
	<g>
		<path class="st4" d="M72.1,66.103H42.311c-1.268,0-2.296,1.028-2.296,2.296v44.567c0,1.884,2.145,2.966,3.66,1.847l12.166-8.988
			c0.811-0.599,1.918-0.599,2.728,0l12.166,8.988c1.516,1.12,3.66,0.038,3.66-1.847V68.399C74.396,67.131,73.368,66.103,72.1,66.103
			z"/>
	</g>
	<g>
		<path class="st7" d="M72.1,66.103H42.311c-1.268,0-2.296,1.028-2.296,2.296v27.95c0.078-0.021,0.156-0.038,0.232-0.069
			l7.711-3.178c0.697-0.287,1.498-0.127,2.031,0.406l5.897,5.897c0.729,0.729,1.91,0.729,2.639,0l5.834-5.834
			c0.535-0.535,1.339-0.694,2.037-0.403l7.617,3.17c0.126,0.052,0.255,0.088,0.384,0.111v-28.05
			C74.396,67.131,73.368,66.103,72.1,66.103z"/>
	</g>
	<g>
		<path class="st3" d="M104.508,49.435c0.729-0.729,0.729-1.91,0-2.639l-5.834-5.834c-0.535-0.535-0.694-1.339-0.403-2.037
			l3.17-7.617c0.396-0.952-0.054-2.044-1.006-2.44l-7.7-3.205c-0.696-0.29-1.149-0.969-1.149-1.723v-8.34
			c0-1.031-0.836-1.866-1.866-1.866h-8.25c-0.756,0-1.437-0.456-1.725-1.155L76.6,4.952c-0.393-0.953-1.484-1.407-2.437-1.014
			l-7.711,3.178c-0.697,0.287-1.498,0.127-2.031-0.406l-5.897-5.897c-0.729-0.729-1.91-0.729-2.639,0l-5.834,5.834
			c-0.535,0.535-1.339,0.694-2.037,0.403l-7.617-3.17c-0.952-0.396-2.044,0.054-2.44,1.006l-3.205,7.7
			c-0.29,0.696-0.969,1.149-1.723,1.149h-8.34c-1.031,0-1.866,0.836-1.866,1.866v8.25c0,0.756-0.456,1.437-1.155,1.725l-7.628,3.144
			c-0.953,0.393-1.407,1.484-1.014,2.437l3.178,7.711c0.287,0.697,0.127,1.498-0.406,2.031l-5.897,5.897
			c-0.729,0.729-0.729,1.91,0,2.639l5.834,5.834c0.535,0.535,0.694,1.339,0.403,2.037l-3.17,7.617
			c-0.396,0.952,0.054,2.044,1.006,2.44l7.7,3.205c0.696,0.29,1.149,0.969,1.149,1.723v8.34c0,1.031,0.836,1.866,1.866,1.866h8.25
			c0.756,0,1.437,0.456,1.725,1.155l3.144,7.628c0.393,0.953,1.484,1.407,2.437,1.014l7.711-3.178
			c0.697-0.287,1.498-0.127,2.031,0.406l5.897,5.897c0.729,0.729,1.91,0.729,2.639,0l5.834-5.834
			c0.535-0.535,1.339-0.694,2.037-0.403l7.617,3.17c0.952,0.396,2.044-0.054,2.44-1.006l3.205-7.7
			c0.29-0.696,0.969-1.149,1.723-1.149h8.34c1.031,0,1.866-0.836,1.866-1.866v-8.25c0-0.756,0.456-1.437,1.155-1.725l7.628-3.144
			c0.953-0.393,1.407-1.484,1.014-2.437l-3.178-7.711c-0.287-0.697-0.127-1.498,0.406-2.031L104.508,49.435z"/>
	</g>
	<g>
		<g>
			<circle class="st0" cx="57.205" cy="48.115" r="35.272"/>
		</g>
		<g>
			<g>
				<path class="st8" d="M57.205,11.515c-20.182,0-36.601,16.419-36.601,36.6c0,20.182,16.419,36.601,36.601,36.601
					s36.601-16.419,36.601-36.601C93.806,27.934,77.387,11.515,57.205,11.515z M57.205,82.059
					c-18.716,0-33.943-15.227-33.943-33.943c0-18.716,15.227-33.943,33.943-33.943c18.716,0,33.943,15.226,33.943,33.943
					C91.149,66.831,75.922,82.059,57.205,82.059z"/>
			</g>
		</g>
	</g>
	<g>
		<g>
			<g>
				<g>
					<path class="st7" d="M49.4,35.804c-0.49-0.636-1.253-0.954-2.29-0.954c-1.037,0-1.872,0.343-2.506,1.029
						c-0.634,0.687-1.056,1.807-1.268,3.362l-1.67,12.114l-2.708-11.993c-0.346-1.635-0.903-2.801-1.67-3.497
						c-0.768-0.697-1.705-1.045-2.809-1.045c-1.105,0-2.112,0.268-3.025,0.802c-0.568,0.333-1.03,0.664-1.385,0.993
						c-0.35,0.324-0.48,0.836-0.379,1.314l0.396,1.887c0.73-1.05,1.575-1.575,2.535-1.575c0.96,0,1.661,0.363,2.103,1.09
						c-0.25-0.061-0.553-0.071-0.907-0.091c-0.933-0.054-1.184,0.495-1.31,0.78l-1.182,9.304c-2.862,1.434-4.292,3.149-4.292,5.148
						c0,0.162,0.009,0.323,0.028,0.484c0.134,1.01,0.495,1.787,1.08,2.332c0.586,0.545,1.32,0.817,2.204,0.817
						c0.883,0,1.656-0.353,2.318-1.06c0.663-0.707,1.099-1.807,1.311-3.301l1.584-11.811l3.428,15.96h4.839l2.016-14.324
						c2.4-1.252,3.812-2.998,4.234-5.239c0.038-0.202,0.058-0.404,0.058-0.606C50.135,37.081,49.89,36.44,49.4,35.804z
						 M31.008,51.991c-0.135,1.231-0.278,2.085-0.432,2.559c-0.154,0.475-0.404,0.712-0.749,0.712c-0.518,0-0.777-0.373-0.777-1.12
						c0-0.747,0.663-1.514,1.987-2.302L31.008,51.991z M46.217,40.967c0.115-1.151,0.269-2.019,0.461-2.604
						c0.134-0.424,0.384-0.636,0.749-0.636c0.192,0,0.336,0.091,0.432,0.273c0.096,0.181,0.144,0.343,0.144,0.484
						C48.003,39.252,47.408,40.08,46.217,40.967z"/>
				</g>
			</g>
			<g>
				<g>
					<path class="st7" d="M58.373,52.475c-1.44,1.726-2.823,3.058-5.099,3.058c-1.383,0-2.074-0.484-2.074-2.544
						c0-0.363,0.029-0.787,0.058-1.211c3.457-0.212,6.626-2.907,6.626-6.39c0-1.515-0.605-2.907-3.169-2.907
						c-5.905,0-7.778,7.298-7.778,10.781c0,3.422,1.786,4.815,4.494,4.815c3.831,0,6.279-2.816,7.922-5.602H58.373z M54.945,44.087
						c0.547,0,0.72,0.484,0.72,1.242c0,2.513-1.959,4.846-4.177,4.997C52.065,47.327,53.476,44.087,54.945,44.087z"/>
				</g>
			</g>
			<g>
				<path class="st7" d="M75.167,42.148c-1.21,0-1.786,0.697-1.786,1.635c0,0.666,0.346,1.544,1.037,1.544
					c0.23,0,0.835-0.091,0.922-0.303c0,3.331-2.161,10.115-4.984,10.115c-0.691,0-0.98-0.394-0.98-0.999
					c0-0.273,0.058-0.666,0.144-1.09l2.074-10.297h-4.148l-1.959,9.721c-0.432,1.514-1.181,2.665-2.305,2.665
					c-0.663,0-0.864-0.636-0.864-1.333c0-0.243,0.029-0.515,0.087-0.757l2.074-10.297h-4.148l-1.959,9.721
					c-0.144,0.727-0.23,1.393-0.23,1.969c0,2.544,1.354,3.634,3.082,3.634c1.152,0,2.679-0.363,4.09-2.544
					c0.346,1.696,1.584,2.544,3.457,2.544c5.877,0,8.21-8.449,8.21-13.295C76.981,43.451,76.55,42.148,75.167,42.148z"/>
			</g>
		</g>
		<g>
			<g>
				<g>
					<path class="st7" d="M80.552,53.825c-0.675,0-1.245,0.238-1.711,0.714c-0.466,0.476-0.7,1.052-0.7,1.726
						c0,0.675,0.233,1.245,0.7,1.711c0.466,0.466,1.036,0.699,1.711,0.699c0.674,0,1.25-0.234,1.725-0.699
						c0.476-0.466,0.714-1.036,0.714-1.711c0-0.674-0.238-1.249-0.714-1.726C81.802,54.063,81.226,53.825,80.552,53.825z
						 M83.706,33.086c-0.992,0-1.686,0.1-2.082,0.298l-1.904,16.93h3.184l3.689-15.591c0.02-0.099,0.03-0.188,0.03-0.267
						C86.621,33.544,85.65,33.086,83.706,33.086z"/>
				</g>
			</g>
		</g>
	</g>
	<g>
		<path class="st7" d="M80.487,64.162h-47.32c-0.608,0-1.105,0.497-1.105,1.105v0.441c0,0.608,0.497,1.105,1.105,1.105h47.32
			c0.608,0,1.105-0.497,1.105-1.105v-0.441C81.593,64.66,81.095,64.162,80.487,64.162z"/>
	</g>
</g>
</svg>
