<?xml version="1.0" encoding="utf-8"?>
<!-- Generator: Adobe Illustrator 24.0.0, SVG Export Plug-In . SVG Version: 6.00 Build 0)  -->
<svg version="1.1" xmlns="http://www.w3.org/2000/svg" xmlns:xlink="http://www.w3.org/1999/xlink" x="0px" y="0px"
	 viewBox="0 0 256 256" enable-background="new 0 0 256 256" xml:space="preserve">
<g id="Layer_2">
</g>
<g id="Layer_1">
	<g>
	</g>
	<g>
		<path fill="#AFAFAF" d="M176.439,13.048v16.79H80.862c-3.032,0-5.493,2.461-5.493,5.493v42.581h-15.28
			c-1.846,0-3.559,0.923-4.57,2.446l-9.917,14.868c-1.802,2.71-6.035,1.421-6.035-1.831V13.048c0-3.032,2.461-5.493,5.493-5.493
			h125.885C173.978,7.555,176.439,10.016,176.439,13.048z"/>
		<path fill="#7D7B79" d="M176.439,19.584v10.253H80.862c-3.032,0-5.493,2.461-5.493,5.493v42.581H65.116V35.331
			c0-8.686,7.06-15.746,15.746-15.746H176.439z"/>
		<path fill="#72C2E9" d="M215.988,35.331v89.088c0,3.252-4.233,4.541-6.035,1.816l-9.917-14.853
			c-1.011-1.538-2.724-2.446-4.57-2.446H80.862c-3.032,0-5.493-2.461-5.493-5.493V35.331c0-3.032,2.461-5.493,5.493-5.493h129.633
			C213.527,29.838,215.988,32.299,215.988,35.331z"/>
		<path fill="#7C7B7A" d="M71.107,140.35l-7.936,4.142c-2.039,1.064-4.305,1.62-6.605,1.62H39.13c-4.447,0-8.052,3.605-8.052,8.052
			v9.083h36.79h0c5.697-6.07,7.059-15.026,3.424-22.515L71.107,140.35z"/>
		<path fill="#EFC01F" d="M92.957,219.336v31.319H6v-31.319c0-12.335,10-22.343,22.343-22.343h42.271
			C82.957,196.993,92.957,207.001,92.957,219.336z"/>
		<path fill="#FFB69F" d="M49.478,196.992L49.478,196.992c-10.159,0-18.395-8.236-18.395-18.395v-15.351h36.79v15.351
			C67.873,188.756,59.638,196.992,49.478,196.992z"/>
		<path fill="#7C7B7A" d="M227.642,140.35l-7.936,4.142c-2.039,1.064-4.305,1.62-6.605,1.62h-17.436
			c-4.447,0-8.052,3.605-8.052,8.052v9.083h36.79h0c5.697-6.07,7.059-15.026,3.424-22.515L227.642,140.35z"/>
		<path fill="#FC5D3D" d="M249.492,219.336v31.319h-86.957v-31.319c0-12.335,10-22.343,22.343-22.343h42.271
			C239.492,196.993,249.492,207.001,249.492,219.336z"/>
		<path fill="#FFB69F" d="M206.014,196.992L206.014,196.992c-10.159,0-18.395-8.236-18.395-18.395v-15.351h36.79v15.351
			C224.409,188.756,216.173,196.992,206.014,196.992z"/>
		<path fill="#C5E5FE" d="M196.894,101.436h-8.623c-1.381,0-2.5-1.119-2.5-2.5s1.119-2.5,2.5-2.5h8.623c1.381,0,2.5,1.119,2.5,2.5
			S198.274,101.436,196.894,101.436z M178.271,101.436H85.369c-1.381,0-2.5-1.119-2.5-2.5V39.838c0-1.381,1.119-2.5,2.5-2.5
			s2.5,1.119,2.5,2.5v56.598h90.402c1.381,0,2.5,1.119,2.5,2.5S179.652,101.436,178.271,101.436z"/>
		<path fill="#F8E5B0" d="M83.957,244.155c-1.381,0-2.5-1.119-2.5-2.5v-6.282c0-1.381,1.119-2.5,2.5-2.5s2.5,1.119,2.5,2.5v6.282
			C86.457,243.036,85.338,244.155,83.957,244.155z M83.957,227.873c-1.381,0-2.5-1.119-2.5-2.5v-6.038
			c0-5.979-4.864-10.843-10.843-10.843c-1.381,0-2.5-1.119-2.5-2.5s1.119-2.5,2.5-2.5c8.736,0,15.843,7.107,15.843,15.843v6.038
			C86.457,226.754,85.338,227.873,83.957,227.873z"/>
		<path fill="#FFCBC3" d="M240.492,244.155c-1.381,0-2.5-1.119-2.5-2.5v-6.281c0-1.381,1.119-2.5,2.5-2.5s2.5,1.119,2.5,2.5v6.281
			C242.992,243.036,241.873,244.155,240.492,244.155z M240.492,227.874c-1.381,0-2.5-1.119-2.5-2.5v-6.038
			c0-5.979-4.864-10.843-10.843-10.843c-1.381,0-2.5-1.119-2.5-2.5s1.119-2.5,2.5-2.5c8.736,0,15.843,7.107,15.843,15.843v6.038
			C242.992,226.754,241.873,227.874,240.492,227.874z"/>
		<path d="M148.045,54.046h44c1.381,0,2.5-1.119,2.5-2.5s-1.119-2.5-2.5-2.5h-44c-1.381,0-2.5,1.119-2.5,2.5
			S146.664,54.046,148.045,54.046z"/>
		<path d="M94.045,54.046h44c1.381,0,2.5-1.119,2.5-2.5s-1.119-2.5-2.5-2.5h-44c-1.381,0-2.5,1.119-2.5,2.5
			S92.664,54.046,94.045,54.046z"/>
		<path d="M94.045,71.883h24.366c1.381,0,2.5-1.119,2.5-2.5s-1.119-2.5-2.5-2.5H94.045c-1.381,0-2.5,1.119-2.5,2.5
			S92.664,71.883,94.045,71.883z"/>
		<path d="M125.911,69.383c0,1.381,1.119,2.5,2.5,2.5h70c1.381,0,2.5-1.119,2.5-2.5s-1.119-2.5-2.5-2.5h-70
			C127.03,66.883,125.911,68.002,125.911,69.383z"/>
		<path d="M198.411,84.72h-51c-1.381,0-2.5,1.119-2.5,2.5s1.119,2.5,2.5,2.5h51c1.381,0,2.5-1.119,2.5-2.5
			S199.792,84.72,198.411,84.72z"/>
		<path d="M94.045,89.72h43.366c1.381,0,2.5-1.119,2.5-2.5s-1.119-2.5-2.5-2.5H94.045c-1.381,0-2.5,1.119-2.5,2.5
			S92.664,89.72,94.045,89.72z"/>
		<path d="M37.07,93.39c-0.034,5.701,7.49,7.99,10.61,3.22l9.92-14.86c0.55-0.84,1.48-1.34,2.49-1.34h12.779v23.034
			c0,4.407,3.585,7.993,7.993,7.993h114.604c1.011,0,1.938,0.493,2.491,1.334l9.911,14.844c3.167,4.79,10.62,2.524,10.62-3.195
			V35.331c0-4.407-3.585-7.993-7.993-7.993H178.94V13.05c0-4.41-3.59-7.99-7.99-7.99H45.06c-4.4,0-7.99,3.58-7.99,7.99v33.33
			c0,1.38,1.12,2.5,2.5,2.5s2.5-1.12,2.5-2.5V13.05c0-1.65,1.34-2.99,2.99-3h125.89c1.64,0.01,2.99,1.35,2.99,3v14.288H80.862
			c-4.407,0-7.993,3.586-7.993,7.993V75.41H60.09c-2.69,0-5.17,1.33-6.65,3.57l-9.92,14.86c-0.495,0.667-1.45,0.311-1.45-0.45V66.38
			c0-1.38-1.12-2.5-2.5-2.5s-2.5,1.12-2.5,2.5V93.39z M80.862,32.338c17.426,0,116.288,0,129.633,0c1.65,0,2.993,1.343,2.993,2.993
			v89.088c0,0.787-1.009,1.104-1.456,0.428l-9.907-14.837c-1.47-2.238-3.959-3.574-6.659-3.574H80.862
			c-1.65,0-2.993-1.342-2.993-2.993c0-7.514,0-61.407,0-68.112C77.869,33.681,79.211,32.338,80.862,32.338z"/>
		<circle cx="39.57" cy="56.38" r="2.5"/>
		<path d="M3.5,220.66v29.99c0,1.38,1.12,2.5,2.5,2.5c1.38,0,2.5-1.12,2.5-2.5v-29.99c0-1.38-1.12-2.5-2.5-2.5
			C4.62,218.16,3.5,219.28,3.5,220.66z"/>
		<path d="M9.97,211.82c0.53-1.28-0.09-2.74-1.36-3.26c-1.26-0.52-2.76,0.12-3.26,1.37c-0.533,1.253,0.067,2.717,1.36,3.26
			C8.039,213.705,9.448,213.076,9.97,211.82z"/>
		<path d="M11.68,200.91c-0.999,0.897-1.124,2.469-0.17,3.53c0.88,0.98,2.54,1.06,3.53,0.17c3.65-3.3,8.38-5.12,13.3-5.12
			c4.817,0-13.105,0,42.27,0c10.93,0.02,19.83,8.92,19.85,19.85v31.31c0,1.38,1.12,2.5,2.5,2.5c1.37,0,2.5-1.12,2.5-2.5v-31.31
			c0-13.72-11.109-24.85-24.85-24.85h-7.601c4.498-3.836,7.364-9.532,7.364-15.893v-14.426c5.484-6.422,7.328-15.946,2.983-24.912
			c-0.613-1.268-2.155-1.777-3.406-1.126l-7.937,4.142c-1.674,0.874-3.558,1.336-5.448,1.336H39.13
			c-5.818,0-10.552,4.733-10.552,10.552v24.434c0,6.361,2.871,12.057,7.369,15.893H28.33C22.17,194.49,16.25,196.77,11.68,200.91z
			 M33.579,154.163c0-3.061,2.491-5.552,5.552-5.552h17.436c2.692,0,5.375-0.658,7.761-1.903l5.535-2.889
			c1.951,5.748,0.784,12.224-3.12,16.927H33.579V154.163z M33.583,178.597v-12.851h31.79v12.851c0,8.748-7.104,15.866-15.846,15.893
			C40.563,194.49,33.583,187.23,33.583,178.597z"/>
		<path d="M59.258,180.119c0-1.381-1.119-2.5-2.5-2.5s-2.5,1.119-2.5,2.5c0,2.633-2.142,4.775-4.775,4.775s-4.775-2.142-4.775-4.775
			c0-1.381-1.119-2.5-2.5-2.5s-2.5,1.119-2.5,2.5c0,5.39,4.385,9.775,9.775,9.775S59.258,185.509,59.258,180.119z"/>
		<path d="M42.858,172.422v-0.335c0-1.381-1.119-2.5-2.5-2.5s-2.5,1.119-2.5,2.5v0.335c0,1.381,1.119,2.5,2.5,2.5
			S42.858,173.803,42.858,172.422z"/>
		<path d="M58.608,174.922c1.381,0,2.5-1.119,2.5-2.5v-0.335c0-1.381-1.119-2.5-2.5-2.5s-2.5,1.119-2.5,2.5v0.335
			C56.108,173.803,57.228,174.922,58.608,174.922z"/>
		<path d="M146.757,214c0-1.381-1.119-2.5-2.5-2.5h-26.479l3.384-3.384c0.977-0.976,0.977-2.559,0-3.535
			c-0.976-0.977-2.56-0.977-3.535,0l-7.649,7.649c-0.946,0.943-1.006,2.537,0,3.54l7.649,7.649c0.976,0.977,2.56,0.977,3.535,0
			c0.977-0.976,0.977-2.559,0-3.535l-3.384-3.384h26.479C145.638,216.5,146.757,215.381,146.757,214z"/>
		<path d="M146.022,175.73l-7.649-7.649c-0.976-0.977-2.56-0.977-3.535,0c-0.977,0.976-0.977,2.559,0,3.535l3.384,3.384h-26.479
			c-1.381,0-2.5,1.119-2.5,2.5s1.119,2.5,2.5,2.5h26.479l-3.384,3.384c-0.977,0.976-0.977,2.559,0,3.535
			c0.976,0.977,2.56,0.977,3.535,0c0.437-0.437,7.765-7.677,8.063-8.216C147.015,177.658,146.76,176.466,146.022,175.73z"/>
		<path d="M215.794,180.119c0-1.381-1.119-2.5-2.5-2.5s-2.5,1.119-2.5,2.5c0,2.633-2.142,4.775-4.775,4.775
			s-4.775-2.142-4.775-4.775c0-1.381-1.119-2.5-2.5-2.5s-2.5,1.119-2.5,2.5c0,5.39,4.385,9.775,9.775,9.775
			S215.794,185.509,215.794,180.119z"/>
		<path d="M199.394,172.422v-0.335c0-1.381-1.119-2.5-2.5-2.5s-2.5,1.119-2.5,2.5v0.335c0,1.381,1.119,2.5,2.5,2.5
			S199.394,173.803,199.394,172.422z"/>
		<path d="M215.144,174.922c1.381,0,2.5-1.119,2.5-2.5v-0.335c0-1.381-1.119-2.5-2.5-2.5s-2.5,1.119-2.5,2.5v0.335
			C212.644,173.803,213.763,174.922,215.144,174.922z"/>
		<path d="M26.044,221.322c-1.381,0-2.5,1.119-2.5,2.5v26.831c0,1.381,1.119,2.5,2.5,2.5s2.5-1.119,2.5-2.5v-26.831
			C28.544,222.441,27.425,221.322,26.044,221.322z"/>
		<path d="M70.413,223.822v26.831c0,1.381,1.119,2.5,2.5,2.5s2.5-1.119,2.5-2.5v-26.831c0-1.381-1.119-2.5-2.5-2.5
			S70.413,222.441,70.413,223.822z"/>
		<path d="M185.08,250.653v-26.831c0-1.381-1.119-2.5-2.5-2.5s-2.5,1.119-2.5,2.5v26.831c0,1.381,1.119,2.5,2.5,2.5
			S185.08,252.034,185.08,250.653z"/>
		<path d="M231.948,250.653v-26.831c0-1.381-1.119-2.5-2.5-2.5s-2.5,1.119-2.5,2.5v26.831c0,1.381,1.119,2.5,2.5,2.5
			S231.948,252.034,231.948,250.653z"/>
		<circle cx="249.49" cy="225.53" r="2.5"/>
		<path d="M249.59,218.01c1.344-0.224,2.28-1.51,2.05-2.89c-2.011-11.715-12.206-20.609-24.49-20.63h-7.605
			c4.498-3.836,7.364-9.532,7.364-15.893v-14.426c5.516-6.46,7.31-16.008,2.982-24.914c-0.615-1.264-2.153-1.776-3.405-1.124
			l-7.936,4.142c-1.675,0.874-3.559,1.336-5.448,1.336h-17.436c-5.818,0-10.551,4.733-10.551,10.552
			c0,2.315,0.005,9.667,0.005,24.434c0,6.361,2.866,12.057,7.364,15.893h-7.603c-13.677,0-24.84,11.053-24.84,24.85v31.32
			c0,1.37,1.12,2.49,2.5,2.49c1.37,0,2.5-1.12,2.5-2.49v-31.32c0.02-10.93,8.92-19.83,19.84-19.85c4.249,0-12.756,0,42.28,0
			c9.7,0,17.92,6.93,19.55,16.48C246.94,217.31,248.24,218.24,249.59,218.01z M190.114,154.163c0-3.061,2.49-5.552,5.551-5.552
			h17.436c2.691,0,5.375-0.658,7.762-1.903l5.535-2.889c1.95,5.749,0.784,12.224-3.12,16.927h-33.164V154.163z M190.119,178.597
			v-12.851h31.79v12.851c0,8.748-7.104,15.866-15.847,15.893h-0.096C197.224,194.463,190.119,187.345,190.119,178.597z"/>
		<path d="M249.49,253.15c1.38,0,2.5-1.12,2.5-2.49v-15.13c0-1.38-1.12-2.5-2.5-2.5s-2.5,1.12-2.5,2.5v15.13
			C246.99,252.03,248.11,253.15,249.49,253.15z"/>
	</g>
</g>
</svg>
