<?xml version="1.0" encoding="iso-8859-1"?>
<!-- Generator: Adobe Illustrator 19.0.0, SVG Export Plug-In . SVG Version: 6.00 Build 0)  -->
<svg xmlns="http://www.w3.org/2000/svg" xmlns:xlink="http://www.w3.org/1999/xlink" version="1.1" id="Layer_1" x="0px" y="0px" viewBox="0 0 512 512" style="enable-background:new 0 0 512 512;" xml:space="preserve">
<g>
	<path style="fill:#E4EAF8;" d="M102.079,136.284H16.568c-4.722,0-8.551-3.829-8.551-8.551V42.221c0-4.722,3.829-8.551,8.551-8.551   h85.511c4.722,0,8.551,3.829,8.551,8.551v85.511C110.63,132.455,106.802,136.284,102.079,136.284z"/>
	<path style="fill:#E4EAF8;" d="M102.079,307.307H16.568c-4.722,0-8.551-3.829-8.551-8.551v-85.511c0-4.722,3.829-8.551,8.551-8.551   h85.511c4.722,0,8.551,3.829,8.551,8.551v85.511C110.63,303.478,106.802,307.307,102.079,307.307z"/>
	<path style="fill:#E4EAF8;" d="M102.079,478.33H16.568c-4.722,0-8.551-3.829-8.551-8.551v-85.511c0-4.722,3.829-8.551,8.551-8.551   h85.511c4.722,0,8.551,3.829,8.551,8.551v85.511C110.63,474.501,106.802,478.33,102.079,478.33z"/>
</g>
<path d="M161.937,221.261h256.534c4.428,0,8.017-3.588,8.017-8.017s-3.588-8.017-8.017-8.017H161.937  c-4.428,0-8.017,3.588-8.017,8.017S157.509,221.261,161.937,221.261z"/>
<path d="M161.937,306.772h153.921c4.428,0,8.017-3.588,8.017-8.017s-3.588-8.017-8.017-8.017H161.937  c-4.428,0-8.017,3.588-8.017,8.017S157.509,306.772,161.937,306.772z"/>
<path d="M503.983,247.983H161.937c-4.428,0-8.017,3.588-8.017,8.017c0,4.428,3.588,8.017,8.017,8.017h342.046  c4.428,0,8.017-3.588,8.017-8.017C512,251.572,508.412,247.983,503.983,247.983z"/>
<path d="M161.937,50.238h256.534c4.428,0,8.017-3.588,8.017-8.017s-3.588-8.017-8.017-8.017H161.937  c-4.428,0-8.017,3.588-8.017,8.017S157.509,50.238,161.937,50.238z"/>
<path d="M161.937,135.749h153.921c4.428,0,8.017-3.588,8.017-8.017c0-4.428-3.588-8.017-8.017-8.017H161.937  c-4.428,0-8.017,3.588-8.017,8.017C153.921,132.161,157.509,135.749,161.937,135.749z"/>
<path d="M161.937,92.994h342.046c4.428,0,8.017-3.588,8.017-8.017c0-4.428-3.588-8.017-8.017-8.017H161.937  c-4.428,0-8.017,3.588-8.017,8.017C153.921,89.405,157.509,92.994,161.937,92.994z"/>
<path d="M102.079,367.699H16.568C7.432,367.699,0,375.131,0,384.267v85.511c0,9.136,7.432,16.568,16.568,16.568h85.511  c9.136,0,16.568-7.432,16.568-16.568v-85.511C118.647,375.131,111.215,367.699,102.079,367.699z M102.614,469.779  c0,0.294-0.241,0.534-0.534,0.534H16.568c-0.294,0-0.534-0.241-0.534-0.534v-85.511c0-0.294,0.241-0.534,0.534-0.534h85.511  c0.294,0,0.534,0.241,0.534,0.534V469.779z"/>
<path d="M161.937,392.284h256.534c4.428,0,8.017-3.588,8.017-8.017s-3.588-8.017-8.017-8.017H161.937  c-4.428,0-8.017,3.588-8.017,8.017S157.509,392.284,161.937,392.284z"/>
<path d="M315.858,461.762H161.937c-4.428,0-8.017,3.588-8.017,8.017s3.588,8.017,8.017,8.017h153.921  c4.428,0,8.017-3.588,8.017-8.017S320.286,461.762,315.858,461.762z"/>
<path d="M503.983,419.006H161.937c-4.428,0-8.017,3.588-8.017,8.017s3.588,8.017,8.017,8.017h342.046  c4.428,0,8.017-3.588,8.017-8.017S508.412,419.006,503.983,419.006z"/>
<path d="M113.698,43.366c-2.997-1.242-6.442-0.556-8.737,1.737l-45.637,45.64L39.34,70.756c-3.132-3.13-8.207-3.13-11.338,0  c-3.131,3.132-3.131,8.207,0,11.338l25.653,25.653c3.132,3.13,8.207,3.13,11.338,0l37.621-37.622v57.607  c0,0.294-0.241,0.534-0.534,0.534H16.568c-0.294,0-0.534-0.24-0.534-0.534V42.221c0-0.294,0.241-0.534,0.534-0.534h59.858  c4.428,0,8.017-3.588,8.017-8.017s-3.588-8.017-8.017-8.017H16.568C7.432,25.653,0,33.085,0,42.221v85.511  c0,9.136,7.432,16.568,16.568,16.568h85.511c9.136,0,16.568-7.432,16.568-16.568v-76.96  C118.647,47.53,116.694,44.606,113.698,43.366z"/>
<path d="M113.698,214.389c-2.997-1.242-6.442-0.556-8.737,1.737l-45.637,45.64L39.34,241.781c-3.132-3.13-8.207-3.13-11.338,0  c-3.131,3.132-3.131,8.207,0,11.338l25.653,25.653c3.132,3.13,8.207,3.13,11.338,0l37.621-37.623v57.607  c0,0.294-0.241,0.534-0.534,0.534H16.568c-0.294,0-0.534-0.241-0.534-0.534v-85.511c0-0.294,0.241-0.534,0.534-0.534h59.858  c4.428,0,8.017-3.588,8.017-8.017s-3.588-8.017-8.017-8.017H16.568C7.432,196.676,0,204.108,0,213.244v85.511  c0,9.136,7.432,16.568,16.568,16.568h85.511c9.136,0,16.568-7.432,16.568-16.568v-76.96  C118.647,218.553,116.694,215.629,113.698,214.389z"/>
<g>
</g>
<g>
</g>
<g>
</g>
<g>
</g>
<g>
</g>
<g>
</g>
<g>
</g>
<g>
</g>
<g>
</g>
<g>
</g>
<g>
</g>
<g>
</g>
<g>
</g>
<g>
</g>
<g>
</g>
</svg>
