<svg xmlns="http://www.w3.org/2000/svg" width="128" height="128" viewBox="0 0 128 128">
  <title>ACCOUNTANT</title>
  <g>
    <path d="M79.959,69.6a14.831,14.831,0,0,0,.017-13.065c-3.024-5.934-7.426-7.181-8.744-16.394H32.569c-1.318,9.213-5.719,10.46-8.743,16.394A14.828,14.828,0,0,0,23.842,69.6Z" fill="#477b9e"/>
    <path d="M82.482,70.394,60.86,63.567,51.9,91.132,42.941,63.567,21.319,70.394A14.623,14.623,0,0,0,11.1,84.339v37.354H92.7V84.339A14.623,14.623,0,0,0,82.482,70.394Z" fill="#7fb3fa"/>
    <polygon points="51.9 91.132 50.15 89.973 50.15 121.693 53.65 121.693 53.65 89.973 51.9 91.132" fill="#64a6f4"/>
    <circle cx="92.702" cy="97.494" r="24.199" fill="#f4dd45"/>
    <circle cx="92.702" cy="97.494" r="16.6" fill="#fcc101"/>
    <path d="M72.021,29.1h1.955a4.071,4.071,0,0,1,4.071,4.071v2.118a4.072,4.072,0,0,1-3.117,3.958l-3.7.89H32.569l-3.7-.89a4.071,4.071,0,0,1-3.117-3.958V33.173a4.071,4.071,0,0,1,4.07-4.071h42.2Z" fill="#feb983"/>
    <polygon points="42.941 63.567 51.9 91.132 38.644 82.354 41.141 77 30.381 67.533 42.941 63.567" fill="#64a6f4"/>
    <polygon points="60.86 63.567 51.9 91.132 65.157 82.354 62.66 77 73.42 67.533 60.86 63.567" fill="#64a6f4"/>
    <path d="M31.78,33.982c0,9.908,5.792,16.785,11.161,21.031a14.482,14.482,0,0,0,17.919,0c5.369-4.246,11.161-11.123,11.161-21.031V26.428A20.12,20.12,0,0,0,51.9,6.307h0A20.12,20.12,0,0,0,31.78,26.428Z" fill="#fcd0a3"/>
    <path d="M72.02,26.43V29.1C57.54,28.6,51.9,18.36,51.9,18.36S46.26,28.6,31.78,29.1V26.43a20.12,20.12,0,1,1,40.24,0Z" fill="#477b9e"/>
    <path d="M42.941,55.013v8.554L51.9,91.132l8.96-27.565V55.013A14.482,14.482,0,0,1,42.941,55.013Z" fill="#feb983"/>
    <path d="M94.064,107.493v1.815H91.483v-1.9a11.629,11.629,0,0,1-6.61-3.035l2.043-2.525a9.7,9.7,0,0,0,4.567,2.44V98.756c-3.49-.907-5.844-2.155-5.844-5.5,0-3.063,2.354-5.418,5.844-5.843V85.68h2.581v1.759a10.55,10.55,0,0,1,5.957,2.637l-1.929,2.61a9.279,9.279,0,0,0-4.028-2.128v5.334c3.886.879,6.467,2.212,6.467,5.672C100.531,104.826,98.177,107.21,94.064,107.493ZM91.483,95.21V90.5a2.678,2.678,0,0,0-2.27,2.439C89.213,94.076,89.951,94.672,91.483,95.21Zm5.5,6.7c0-1.305-.907-1.9-2.921-2.5v5.049C95.993,104.231,96.985,103.153,96.985,101.905Z" fill="#f4dd45"/>
    <path d="M51.9,49.171A10.805,10.805,0,0,1,45.13,47.1a1.75,1.75,0,0,1,2.252-2.68A7.589,7.589,0,0,0,51.9,45.671a7.736,7.736,0,0,0,4.519-1.255,1.75,1.75,0,1,1,2.252,2.68A10.8,10.8,0,0,1,51.9,49.171Z" fill="#feb983"/>
    <path d="M34.58,110.57a1.749,1.749,0,0,1-1.7,1.36,1.7,1.7,0,0,1-.38-.04,12.02,12.02,0,0,1-3.1-1.37,34.936,34.936,0,0,1-1.48,11.17H24.21c.15-.35.23-.57.23-.58a33.258,33.258,0,0,0,1.21-13.94c-2.42-3.13-4.14-8.23-2.38-16.41a1.754,1.754,0,0,1,3.43.74c-3.13,14.49,6.18,16.88,6.57,16.97A1.756,1.756,0,0,1,34.58,110.57Z" fill="#64a6f4"/>
    <circle cx="44.881" cy="32.258" r="2.613" fill="#feb983"/>
    <circle cx="58.92" cy="32.258" r="2.613" fill="#feb983"/>
  </g>
</svg>
