<?xml version="1.0" encoding="UTF-8"?>
<!DOCTYPE svg PUBLIC "-//W3C//DTD SVG 1.1//EN" "http://www.w3.org/Graphics/SVG/1.1/DTD/svg11.dtd">
<!-- Creator: CorelDRAW 2020 (64-Bit) -->
<svg xmlns="http://www.w3.org/2000/svg" xml:space="preserve" width="0.781921in" height="1.20585in" version="1.1" shape-rendering="geometricPrecision" text-rendering="geometricPrecision" image-rendering="optimizeQuality" fill-rule="evenodd" clip-rule="evenodd"
viewBox="0 0 338.61 522.19"
 xmlns:xlink="http://www.w3.org/1999/xlink"
 xmlns:xodm="http://www.corel.com/coreldraw/odm/2003">
 <g id="Layer_x0020_1">
  <metadata id="CorelCorpID_0Corel-Layer"/>
  <g id="_1905821509296">
   <path fill="#72B39C" d="M300.58 28.85c-420.52,247.81 60.6,145.34 -204.09,493.33 434.47,-331.23 -132.25,-131.06 204.09,-493.33z"/>
   <path fill="#3E4095" d="M97.03 288.15l16.1 9.41c-33.76,8.66 -71.68,15.83 -113.13,20.67 35.4,-10.01 67.99,-20.03 97.03,-30.08z"/>
   <path fill="#3E4095" d="M133.56 273.83l13.07 12.81c151,-46.58 200.42,-121.86 76.62,-131.92 56.38,39.7 12.08,79.4 -89.69,119.1z"/>
   <path fill="#3E4095" d="M51.25 382.77c185.46,-53.74 293.62,-107.48 217.3,-161.22 156.72,12.73 35.85,129.99 -217.3,161.22z"/>
   <path fill="#5D5AA5" d="M100.89 285.33l17.94 10.34c-6.41,-3.02 -12.4,-6.48 -17.94,-10.34z"/>
   <path fill="#3E4095" d="M102.6 288.74l17.94 10.34c15.56,7.33 33.59,12.07 53.72,13.49 -9.85,-7.05 -18.62,-14.05 -26.36,-20.99 -5.32,-4.78 -10.16,-9.53 -14.53,-14.25 -94.73,-102.42 30.84,-192.78 182.39,-277.34 -274.47,50.15 -306,224.25 -213.16,288.74z"/>
   <path fill="#72B39C" d="M300.58 28.85c-420.52,247.81 60.6,145.34 -204.09,493.33 434.47,-331.23 -132.25,-131.06 204.09,-493.33z"/>
   <path fill="#3E4095" d="M97.03 288.15l16.1 9.41c-33.76,8.66 -71.68,15.83 -113.13,20.67 35.4,-10.01 67.99,-20.03 97.03,-30.08z"/>
   <path fill="#3E4095" d="M133.56 273.83l13.07 12.81c151,-46.58 200.42,-121.86 76.62,-131.92 56.38,39.7 12.08,79.4 -89.69,119.1z"/>
   <path fill="#3E4095" d="M51.25 382.77c185.46,-53.74 293.62,-107.48 217.3,-161.22 156.72,12.73 35.85,129.99 -217.3,161.22z"/>
   <path fill="#5D5AA5" d="M100.89 285.33l17.94 10.34c-6.41,-3.02 -12.4,-6.48 -17.94,-10.34z"/>
   <path fill="#3E4095" d="M102.6 288.74l17.94 10.34c15.56,7.33 33.59,12.07 53.72,13.49 -9.85,-7.05 -18.62,-14.05 -26.36,-20.99 -5.32,-4.78 -10.16,-9.53 -14.53,-14.25 -94.73,-102.42 30.84,-192.78 182.39,-277.34 -274.47,50.15 -306,224.25 -213.16,288.74z"/>
  </g>
 </g>
</svg>
