<?xml version="1.0" encoding="utf-8"?>
<!-- Generator: Adobe Illustrator 22.0.1, SVG Export Plug-In . SVG Version: 6.00 Build 0)  -->
<svg version="1.1" id="Layer_1" xmlns="http://www.w3.org/2000/svg" xmlns:xlink="http://www.w3.org/1999/xlink" x="0px" y="0px"
	 viewBox="0 0 512 512" style="enable-background:new 0 0 512 512;" xml:space="preserve">
<style type="text/css">
	.st0{fill:#35216D;}
	.st1{fill:#EDF3FC;}
	.st2{fill:#330D84;}
	.st3{fill:#FFBE1B;}
	.st4{fill:#0061F3;}
	.st5{fill:#8C7BFD;}
	.st6{fill:#FFFFFF;}
	.st7{fill:#5932AE;}
	.st8{fill:#1C46C4;}
	.st9{fill:#6857E5;}
	.st10{fill:#5D8EF9;}
	.st11{fill:#8AC9F9;}
	.st12{fill:#FFE37B;}
	.st13{fill:#FFD000;}
	.st14{fill:#2EF39E;}
	.st15{fill:#330D84;stroke:#330D84;stroke-width:0.6306;stroke-linecap:round;stroke-linejoin:round;stroke-miterlimit:10;}
	.st16{fill:#FFFFFF;stroke:#FFFFFF;stroke-width:0.737;stroke-linecap:round;stroke-linejoin:round;stroke-miterlimit:10;}
	.st17{fill:none;}
	.st18{fill:#FDB813;}
</style>
<g>
	<g>
		<g>
			<g>
				<path class="st1" d="M255.999,40.928c-118.778,0-215.071,96.294-215.071,215.074c0,118.776,96.292,215.068,215.071,215.068
					S471.07,374.778,471.07,256.002C471.07,137.222,374.777,40.928,255.999,40.928z"/>
			</g>
		</g>
		<g>
			<g>
				<path class="st1" d="M255.999,1C115.391,1,1,115.392,1,256.002C1,396.609,115.391,511,255.999,511S511,396.609,511,256.002
					C511,115.392,396.607,1,255.999,1z M255.999,502.832c-136.103,0-246.83-110.728-246.83-246.83
					c0-136.104,110.727-246.833,246.83-246.833c136.102,0,246.832,110.729,246.832,246.833
					C502.831,392.104,392.101,502.832,255.999,502.832z"/>
			</g>
		</g>
	</g>
	<path class="st18" d="M352.645,265.195L352.645,265.195c-0.179-0.563-0.386-1.117-0.62-1.66c-0.004-0.01-0.009-0.021-0.013-0.031
		c-0.226-0.522-0.479-1.033-0.756-1.532c-0.019-0.034-0.037-0.068-0.056-0.102c-0.262-0.467-0.55-0.92-0.855-1.362
		c-0.041-0.06-0.08-0.121-0.122-0.18c-0.288-0.407-0.599-0.798-0.923-1.18c-0.07-0.083-0.136-0.168-0.208-0.249
		c-0.307-0.349-0.635-0.681-0.972-1.006c-0.101-0.097-0.197-0.2-0.301-0.295c-0.324-0.299-0.67-0.578-1.021-0.854
		c-0.129-0.102-0.25-0.21-0.383-0.309c-0.357-0.265-0.736-0.507-1.117-0.746c-0.139-0.087-0.268-0.184-0.41-0.267
		c-0.528-0.311-1.075-0.598-1.645-0.857c0,0-23.488-14.138-46.942-24.32c-17.833-7.742-41.075-15.721-52.204-16.62
		c-4.799-0.388-12.91-0.938-17.886,3.348c-2.959,2.548-6.291,14.822-10.448,18.686c-8.38,7.79-18.272,9.447-23.663,8.617
		c-4.215-0.648-2.172-12.822-2.172-12.822s6.532-28.075,12.271-40.606c-6.416,1.38-12.647,2.431-16.017,2.171
		c-3.673-0.283-11.894-3.767-20.044-7.631l-31.644,81.788c4.595,2.288,8.883,4.593,11.674,6.477
		c9.061,6.117,12.151,16.104,18.103,26.853c0.684,1.235,2.064,2.818,4.011,4.663l8.528-15.233c3.512-6.27,12.042-8.171,19.053-4.247
		c5.382,3.012,8.292,8.572,7.784,13.832c4.307-6.251,12.621-8.378,19.226-4.675c6.788,3.8,9.259,12.349,5.769,19.407
		c4.23-4.462,11.419-5.527,17.434-2.167c7.018,3.934,9.752,12.39,6.111,18.891l-0.091,0.162c3.743-2.637,9.409-2.819,14.368-0.041
		c6.495,3.641,9.313,10.955,6.296,16.335l-7.165,12.806l11.76,6.636c7.726,3.99,17.211,0.976,21.21-6.748
		c2.777-5.369,2.154-11.593-1.078-16.232c7.888,3.098,17.004-0.203,20.983-7.896c3.346-6.461,2.059-14.084-2.635-19.119
		c8.434,4.008,18.479,0.716,22.554-7.476c3.979-8.013,0.775-17.742-7.115-22.202c8.167,2.328,17.027-1.589,20.645-9.556
		C353.769,273.57,353.898,269.156,352.645,265.195z"/>
	<path class="st12" d="M266.463,331.102c-4.959-2.778-10.625-2.597-14.368,0.04l0.091-0.162c3.641-6.501,0.907-14.958-6.111-18.891
		c-6.016-3.36-13.204-2.295-17.434,2.167c3.49-7.058,1.018-15.608-5.769-19.407c-6.605-3.703-14.919-1.576-19.226,4.675
		c0.508-5.26-2.402-10.82-7.784-13.832c-7.012-3.925-15.541-2.023-19.053,4.247l-11.475,20.499
		c-3.517,6.279-0.676,14.544,6.341,18.471c5.734,3.213,12.478,2.521,16.672-1.259c-1.76,6.414,0.87,13.37,6.809,16.692
		c6.361,3.565,14.309,1.712,18.731-4.03c-1.953,6.079,0.896,13.111,7.103,16.583c5.977,3.343,13.114,2.312,17.352-2.078
		c-0.877,4.868,1.973,10.394,7.338,13.403c6.497,3.637,14.211,2.211,17.224-3.169l9.855-17.613
		C275.776,342.057,272.958,334.743,266.463,331.102z"/>
	<path class="st12" d="M344.997,173.202l-22.281,7.46l-4.815,0.717c-0.031-0.005-47.905-8.22-60.066-8.22
		c-12.166,0-46.139,7.044-52.293,12.338c-6.154,5.295-15.615,45.96-15.615,45.96s-2.043,12.173,2.172,12.822
		c5.392,0.83,15.283-0.828,23.663-8.617c4.157-3.864,7.49-16.138,10.448-18.686c4.977-4.286,13.087-3.736,17.886-3.348
		c11.129,0.898,34.37,8.878,52.204,16.62c23.454,10.182,46.942,24.32,46.942,24.32c4.688,2.127,7.96,6.077,9.401,10.628
		c0,0,1.996-5.64,5.176-7.99c1.33-0.983,8.988-3.352,17.444-5.775L344.997,173.202z"/>
	<path class="st12" d="M266.463,331.102c-4.959-2.778-10.625-2.597-14.368,0.04l0.091-0.162c3.641-6.501,0.907-14.958-6.111-18.891
		c-6.016-3.36-13.204-2.295-17.434,2.167c3.49-7.058,1.018-15.608-5.769-19.407c-6.605-3.703-14.919-1.576-19.226,4.675
		c0.508-5.26-2.402-10.82-7.784-13.832c-7.012-3.925-15.541-2.023-19.053,4.247l-11.475,20.499
		c-3.517,6.279-0.676,14.544,6.341,18.471c5.734,3.213,12.478,2.521,16.672-1.259c-1.76,6.414,0.87,13.37,6.809,16.692
		c6.361,3.565,14.309,1.712,18.731-4.03c-1.953,6.079,0.896,13.111,7.103,16.583c5.977,3.343,13.114,2.312,17.352-2.078
		c-0.877,4.868,1.973,10.394,7.338,13.403c6.497,3.637,14.211,2.211,17.224-3.169l9.855-17.613
		C275.776,342.057,272.958,334.743,266.463,331.102z"/>
	<path class="st7" d="M342.537,166.844l38.321,99.046c2.001,5.173,7.822,7.737,12.984,5.74l29.501-11.414
		c5.174-2.002,7.741-7.811,5.74-12.984l-38.321-99.046c-1.997-5.162-7.811-7.742-12.984-5.74l-29.501,11.414
		C343.115,155.856,340.54,161.682,342.537,166.844z"/>
	
		<ellipse transform="matrix(0.9326 -0.3608 0.3608 0.9326 -36.4145 142.4713)" class="st6" cx="363.333" cy="168.754" rx="7.683" ry="7.683"/>
	<path class="st2" d="M169.463,176.797l-38.321,99.046c-2.001,5.173-7.822,7.737-12.984,5.74l-29.501-11.414
		c-5.174-2.002-7.741-7.811-5.74-12.984l38.321-99.046c1.997-5.162,7.811-7.742,12.984-5.74l29.501,11.414
		C168.885,165.81,171.46,171.635,169.463,176.797z"/>
	
		<ellipse transform="matrix(0.3608 -0.9326 0.9326 0.3608 -71.6451 252.8756)" class="st6" cx="148.667" cy="178.708" rx="7.683" ry="7.683"/>
	<path class="st11" d="M339.569,135.797l2.292,0.574l-2.292,0.574c-13.417,3.362-23.888,13.836-27.249,27.253l-0.577,2.289
		l-0.575-2.289c-3.361-13.417-13.834-23.892-27.255-27.253l-2.283-0.574l2.283-0.574c13.421-3.362,23.894-13.839,27.255-27.249
		l0.575-2.287l0.577,2.287C315.681,121.958,326.152,132.435,339.569,135.797L339.569,135.797z"/>
	<path class="st2" d="M137.91,327.476l2.202,0.552l-2.202,0.552c-12.892,3.23-22.954,13.295-26.183,26.188l-0.554,2.199
		l-0.552-2.199c-3.229-12.892-13.293-22.957-26.189-26.188l-2.194-0.552l2.194-0.552c12.896-3.23,22.96-13.298,26.189-26.183
		l0.552-2.197l0.554,2.197C114.957,314.178,125.018,324.246,137.91,327.476L137.91,327.476z"/>
	<path class="st2" d="M159.668,125.02l1.471,0.369l-1.471,0.369c-8.612,2.158-15.334,8.882-17.491,17.494l-0.37,1.469l-0.369-1.469
		c-2.157-8.613-8.88-15.336-17.495-17.494l-1.466-0.369l1.466-0.369c8.615-2.158,15.338-8.883,17.495-17.491l0.369-1.468l0.37,1.468
		C144.335,116.137,151.056,122.862,159.668,125.02L159.668,125.02z"/>
	<path class="st18" d="M333.038,378.899l1.633,0.409l-1.633,0.409c-9.562,2.396-17.024,9.86-19.419,19.422l-0.411,1.631l-0.41-1.631
		c-2.395-9.562-9.859-17.026-19.423-19.422l-1.627-0.409l1.627-0.409c9.564-2.396,17.028-9.862,19.423-19.419l0.41-1.63l0.411,1.63
		C316.015,369.037,323.477,376.504,333.038,378.899L333.038,378.899z"/>
	<path class="st18" d="M359.875,344.348l0.997,0.25l-0.997,0.25c-5.836,1.462-10.391,6.019-11.853,11.855l-0.251,0.996l-0.25-0.996
		c-1.462-5.837-6.018-10.393-11.856-11.855l-0.993-0.25l0.993-0.25c5.838-1.462,10.394-6.02,11.856-11.853l0.25-0.995l0.251,0.995
		C349.484,338.328,354.039,342.886,359.875,344.348L359.875,344.348z"/>
</g>
</svg>
