<?xml version="1.0" encoding="utf-8"?>
<!-- Generator: Adobe Illustrator 18.0.0, SVG Export Plug-In . SVG Version: 6.00 Build 0)  -->
<!DOCTYPE svg PUBLIC "-//W3C//DTD SVG 1.1//EN" "http://www.w3.org/Graphics/SVG/1.1/DTD/svg11.dtd">
<svg version="1.1" id="Layer_1" xmlns="http://www.w3.org/2000/svg" xmlns:xlink="http://www.w3.org/1999/xlink" x="0px" y="0px"
	 width="256px" height="256px" viewBox="0 0 256 256" enable-background="new 0 0 256 256" xml:space="preserve">
<g>
	<g>
		<g>
			<g>
				<path fill="#E0E0E0" d="M80.6,246.3l8.6-64.6l0.1,0c9.8,2.2,16.9,11.2,16.9,21.2v43.3H80.6z"/>
			</g>
		</g>
		<g>
			<g>
				<path fill="#E0E0E0" d="M25.5,246.3V203c0-9.6,8.7-19,19.8-21.3l0.1,0l8.7,64.6H25.5z"/>
			</g>
		</g>
		<g>
			<g>
				<path fill="#4A555F" d="M67.2,177.4c-13.8,0-25.1-11.2-25.1-25.1c0-13.8,11.2-25.1,25.1-25.1s25.1,11.2,25.1,25.1
					C92.3,166.2,81.1,177.4,67.2,177.4z M67.2,130.7c-12,0-21.7,9.7-21.7,21.7s9.7,21.7,21.7,21.7S89,164.4,89,152.4
					S79.2,130.7,67.2,130.7z"/>
			</g>
			<g>
				<path fill="#FFD552" d="M67.2,170.2c-9.8,0-17.8-8-17.8-17.8c0-9.8,8-17.8,17.8-17.8c9.8,0,17.8,8,17.8,17.8
					C85.1,162.2,77.1,170.2,67.2,170.2z"/>
			</g>
			<g>
				<path fill="#4A555F" d="M113.7,246.3h-3.3v-42.6c0-14.5-11.8-26.3-26.3-26.3H48.1c-14.5,0-26.3,11.8-26.3,26.3v42.6h-3.3v-42.6
					c0-16.4,13.3-29.7,29.7-29.7H84c16.4,0,29.7,13.3,29.7,29.7V246.3z"/>
			</g>
			<g>
				<path fill="#4A555F" d="M57.5,246.5l-5.9-45.9l0,0l-3.4-26.5h8.3l8.3,10.1l-9.8,17.1l5.8,44.8L57.5,246.5z M52,177.4l2.4,18.4
					l6.5-11.3l-5.9-7.1H52z"/>
			</g>
			<g>
				<path fill="#4A555F" d="M76.9,246.5l-3.3-0.4l5.8-44.9l-9-17.4l8.3-9.7h7.5l-3.4,26.5l0.1,0.1l-0.1,0L76.9,246.5z M74.4,184.3
					l5.7,11.1l2.3-17.9h-2.2L74.4,184.3z"/>
			</g>
			<g>
				<rect x="65.7" y="189.7" fill="#4A555F" width="3.3" height="56.6"/>
			</g>
			<g>
				<polygon fill="#4A555F" points="67.3,192.3 61.6,185.4 64.1,183.3 67.4,187.2 71.1,182.9 73.6,185.1 				"/>
			</g>
			<g>
				<circle fill="#4A555F" cx="73.9" cy="203.9" r="2.4"/>
			</g>
			<g>
				<circle fill="#4A555F" cx="73.9" cy="221.6" r="2.4"/>
			</g>
			<g>
				<circle fill="#4A555F" cx="73.9" cy="238.5" r="2.4"/>
			</g>
		</g>
		<g>
			<rect x="30.9" y="219.1" fill="#4A555F" width="3.3" height="27.2"/>
		</g>
		<g>
			<rect x="97.6" y="219.1" fill="#4A555F" width="3.3" height="27.2"/>
		</g>
	</g>
	<g>
		<g>
			<path fill="#4A555F" d="M237.6,107.2h-70.9v-24h70.9V107.2z M170,103.8h64.2V86.5H170V103.8z"/>
		</g>
		<g>
			<rect x="173.9" y="90.4" fill="#FFD552" width="56.4" height="9.5"/>
		</g>
		<g>
			<path fill="#4A555F" d="M229.5,86.5h-70.9v-24h70.9V86.5z M161.9,83.2h64.2V65.9h-64.2V83.2z"/>
		</g>
		<g>
			<rect x="165.8" y="69.8" fill="#FFD552" width="56.4" height="9.5"/>
		</g>
		<g>
			<path fill="#4A555F" d="M183,65.9c-17.4,0-31.5-14.1-31.5-31.5S165.6,2.9,183,2.9s31.5,14.1,31.5,31.5S200.4,65.9,183,65.9z
				 M183,6.2c-15.5,0-28.2,12.6-28.2,28.2s12.6,28.2,28.2,28.2s28.2-12.6,28.2-28.2S198.5,6.2,183,6.2z"/>
		</g>
		<g>
			<path fill="#FFD552" d="M183,58.6c-13.4,0-24.3-10.9-24.3-24.3s10.9-24.3,24.3-24.3c13.4,0,24.3,10.9,24.3,24.3
				S196.4,58.6,183,58.6z"/>
		</g>
		<g>
			<path fill="#4A555F" d="M200.1,65.9H183v-3.3c15.5,0,28.2-12.6,28.2-28.2S198.5,6.2,183,6.2V2.9h17.1c6.5,0,12.8,2,18.1,5.7
				c8.4,5.9,13.4,15.5,13.4,25.8s-5,19.9-13.4,25.8C212.9,63.9,206.6,65.9,200.1,65.9z M197.1,62.5h3c5.8,0,11.4-1.8,16.1-5.1
				c7.5-5.3,12-13.9,12-23.1s-4.5-17.8-12-23.1c-4.7-3.3-10.3-5.1-16.1-5.1h-3c10.3,5.2,17.4,15.9,17.4,28.2S207.4,57.3,197.1,62.5z
				"/>
		</g>
		<g>
			<path fill="#F68F6F" d="M210.9,56.1c4.7-6,7.5-13.5,7.5-21.7c0-8.2-2.8-15.7-7.5-21.7c1.1,0.5,2.1,1.1,3.1,1.8
				c6.5,4.5,10.4,12,10.4,19.9s-3.9,15.3-10.4,19.9C213,54.9,212,55.5,210.9,56.1z"/>
		</g>
		<g>
			<rect x="194.1" y="69.8" fill="#F68F6F" width="28.2" height="9.5"/>
		</g>
		<g>
			<rect x="202.1" y="90.4" fill="#F68F6F" width="28.2" height="9.5"/>
		</g>
		<g>
			<path fill="#4A555F" d="M183,49c-4.6,0-8.3-3.7-8.3-8.3h3.3c0,2.7,2.2,5,5,5c2.7,0,5-2.2,5-5c0-2.4-2-4.4-4.4-4.4h-1.1
				c-4.3,0-7.8-3.5-7.8-7.8V28c0-4.6,3.7-8.3,8.3-8.3c4.6,0,8.3,3.7,8.3,8.3v0.1H188V28c0-2.7-2.2-5-5-5c-2.7,0-5,2.2-5,5v0.5
				c0,2.4,2,4.4,4.4,4.4h1.1c4.3,0,7.8,3.5,7.8,7.8C191.3,45.3,187.6,49,183,49z"/>
		</g>
		<g>
			<rect x="181.3" y="15.4" fill="#4A555F" width="3.3" height="6"/>
		</g>
		<g>
			<rect x="181.3" y="47.4" fill="#4A555F" width="3.3" height="6"/>
		</g>
	</g>
	<g>
		<path fill="#4A555F" d="M229.9,256h-44.4v-55.9L53.6,83.8V35.6H37.9L73.2,0l35.4,35.6H95v30.7l134.9,120V256z M188.8,252.7h37.7
			v-64.9L91.6,67.8V32.3h9L73.2,4.7L45.9,32.3h11.1v50l131.9,116.2V252.7z"/>
	</g>
	<g>
		<polygon fill="#F68F6F" points="91.2,28.4 87.7,28.4 87.7,69.6 222.7,189.5 222.7,248.8 192.7,248.8 192.7,196.8 60.8,80.6 
			60.8,28.4 55.2,28.4 73.2,10.3 		"/>
	</g>
</g>
</svg>
