<svg width="205" height="326" viewBox="0 0 205 326" fill="none" xmlns="http://www.w3.org/2000/svg">
<path d="M105.96 34.5268L115.98 28.7021V320.043L105.97 325.868L105.96 34.5268Z" fill="#37474F"/>
<path d="M90.9404 317.121L105.97 325.868L105.96 34.5269L102.33 32.4107L101.11 45.0677L99.8604 30.9798L90.9404 25.79V317.121Z" fill="#455A64"/>
<path opacity="0.1" d="M105.95 231.999V196.084C105.37 182.127 104.7 163.837 104.81 155.846L101.34 153.83C101.34 166.013 99.9798 188.465 99.2398 203.601C98.2398 225.056 102.01 252.778 102.17 263.964C102.33 275.149 102.17 323.661 102.17 323.661L103.88 324.668C103.88 324.668 103.37 263.661 104.81 247.457C105.31 241.874 105.68 236.624 105.95 231.999ZM102.52 239.597C100.23 238.589 100.79 184.364 103.16 185.18C105.04 185.896 104.83 240.615 102.54 239.597H102.52Z" fill="black"/>
<path d="M102.33 32.4104L99.8604 30.9795L101.11 45.0674L102.33 32.4104Z" fill="#263238"/>
<path opacity="0.05" d="M95.8004 28.6111C95.5904 44.2105 98.6304 54.6706 98.5704 76.3567C98.5704 76.3567 98.2304 61.0193 96.1804 49.6522C94.8273 42.3365 94.0648 34.9223 93.9004 27.4824L95.8004 28.6111Z" fill="white"/>
<path opacity="0.05" d="M105.95 34.5266C105.95 39.666 105.73 51.3857 105.1 58.601C104.507 68.6339 104.43 78.6909 104.87 88.7318C104.87 88.7318 103.08 71.7114 103.68 61.6242C104.28 51.5369 104.27 33.5391 104.27 33.5391L105.95 34.5266Z" fill="white"/>
<path opacity="0.1" d="M90.9502 83.7338V102.417C92.5402 92.5715 95.0302 82.1819 95.4702 77.758C96.1302 71.1373 95.0302 58.9742 93.9102 52.1015C92.7902 45.2289 90.9102 33.6402 91.2402 26.0017L90.9502 25.79V44.3623L91.1002 45.5615C92.3402 54.7518 92.9902 68.356 92.5302 74.4225C92.2232 77.5601 91.6952 80.6717 90.9502 83.7338Z" fill="black"/>
<path opacity="0.05" d="M96.8199 216.752C96.5199 223.604 99.4299 249.16 99.9899 257.212C101.09 272.942 100.59 322.713 100.59 322.713L98.5899 321.534C98.5899 321.534 98.8299 265.263 98.5899 258.723C98.2399 249.694 95.9499 224.683 96.8199 216.752Z" fill="white"/>
<path opacity="0.1" d="M98.5702 152.722C98.5702 165.177 98.1802 188.798 96.5702 198.764C94.3984 213.502 94.0624 228.454 95.5702 243.275C96.6916 254.324 96.8857 265.448 96.1502 276.53C96.1502 276.53 95.5402 257.323 93.8101 241.603C92.3096 225.963 92.3565 210.212 93.9502 194.582C95.3102 179.386 95.7002 150.475 95.7002 150.475L98.5702 152.722Z" fill="black"/>
<path opacity="0.05" d="M93.3198 149.669C93.3198 149.669 93.0898 169.45 92.7398 176.021C92.3898 182.591 91.4398 195.419 91.4398 195.419C91.4398 195.419 91.1298 174.358 91.4398 167.596C91.7498 160.834 91.2998 148.127 91.2998 148.127L93.3198 149.669Z" fill="white"/>
<path opacity="0.05" d="M93.32 258.835C94.4399 269.416 94.59 281.801 94.89 286.477C95.19 291.152 95.65 319.862 95.65 319.862L93.32 318.532C93.32 318.532 93.12 288.794 93.05 282.113C92.95 273.517 93.7299 264.518 93.32 258.835Z" fill="white"/>
<path opacity="0.1" d="M98.5205 33.126C99.0305 41.3389 100.93 49.2495 101.52 55.0338C102.11 60.8181 102.52 78.6245 102.52 78.6245L100.52 77.4857C100.52 77.4857 100.95 61.1909 99.9504 53.24C98.9504 45.2891 98.2905 38.3863 98.5205 33.126Z" fill="black"/>
<path d="M115.98 28.7021L100.96 19.9551L90.9404 25.7898L105.96 34.5267L115.98 28.7021Z" fill="#263238"/>
<path opacity="0.15" d="M115.98 194.764L105.97 200.588V214.747L115.98 208.912V194.764Z" fill="black"/>
<path opacity="0.15" d="M105.97 200.588L90.9404 191.852V206L105.97 214.747V200.588Z" fill="black"/>
<path d="M8.73047 100.653L193.99 208.398L204.73 202.17L19.4905 94.3848L8.73047 100.653Z" fill="#263238"/>
<path d="M0.00976562 93.3373L186.44 201.758V158.345L169.94 148.752L168.14 161.409L167.06 147.069L0.00976562 49.9248L0.0197754 77.9998L5.37976 83.381L0.00976562 81.809V93.3373Z" fill="#455A64"/>
<path opacity="0.05" d="M186.44 194.583C176.74 188.92 135.94 165.722 131.24 163.465C117.58 156.874 105.8 151.694 87.5195 141.204C87.5195 141.204 95.9995 147.25 114.28 156.804C122.86 161.258 130.72 165.067 134.85 167.133C138.98 169.199 186.44 196.739 186.44 196.739V194.583Z" fill="white"/>
<path opacity="0.1" d="M0.0498047 59.2363L15.9598 68.5073C30.2098 76.821 39.7898 82.8068 45.9598 88.5307C52.1298 94.2545 64.1298 101.5 69.5098 104.453C69.5098 104.453 63.1898 102.135 51.3498 94.7483C39.5098 87.3617 37.3498 83.5022 20.5098 73.6971L0.0498047 61.7556V59.2363Z" fill="black"/>
<path opacity="0.1" d="M186.44 189.383L136.79 160.512C131.39 157.368 118.68 154.899 111.71 150.838C115.523 153.491 119.631 155.686 123.95 157.378C131.04 160.119 179.79 187.851 186.43 191.711L186.44 189.383Z" fill="black"/>
<path opacity="0.05" d="M5.37952 83.3806L52.8595 111.053C63.6295 117.331 81.5295 129.937 96.6095 138.17C111.69 146.403 122.81 151.129 122.81 151.129C122.81 151.129 108.38 146.988 96.4495 140.045C84.5195 133.101 62.7995 119.407 49.6995 111.768L0.0195312 82.8163V81.8086L5.37952 83.3806Z" fill="white"/>
<path opacity="0.05" d="M186.44 173.854C176.44 168.02 143.32 148.782 135.44 144.167C127.56 139.552 115.44 131.067 102.03 123.206C91.4923 117.032 80.4962 111.689 69.1404 107.224C63.0619 104.703 57.138 101.82 51.4004 98.5879C58.4239 103.318 65.8261 107.451 73.5304 110.943C86.8404 117.039 102.78 125.433 116.93 135.571C131.08 145.709 186.44 176.706 186.44 176.706V173.854Z" fill="white"/>
<path opacity="0.05" d="M0.0595703 53.4014C0.0595703 53.4014 59.9896 87.6638 74.9696 96.3604C89.9496 105.057 109.58 117.24 109.58 117.24C109.58 117.24 77.9496 100.26 46.2096 81.7888L0.0595703 54.8827V53.4014Z" fill="white"/>
<path opacity="0.1" d="M186.44 165.701C186.44 165.701 117.21 125.392 97.6904 114.046C78.1704 102.699 56.4404 92.168 56.4404 92.168C56.4404 92.168 72.6505 102.971 96.6205 116.988C103.72 121.14 186.44 169.269 186.44 169.269V165.711" fill="black"/>
<path opacity="0.1" d="M0.00976562 86.5146L53.6597 117.754C64.6597 124.163 93.1898 141.687 99.9897 146.03C99.9897 146.03 71.8997 131.157 34.5398 109.38L0.00976562 89.2254V86.5146Z" fill="black"/>
<path opacity="0.1" d="M0.0302734 76.6794L45.2203 103.021C55.7303 109.148 80.2203 125.806 91.0303 132.084C101.84 138.362 172.92 177.371 186.44 185.251V182.228C178.05 177.33 109.94 132.779 93.6703 123.286C77.4003 113.794 60.7403 109.037 50.6003 103.132L0.0302734 73.6562V76.6794ZM70.3503 115.446C70.3503 113.925 84.2303 120.314 93.7703 125.866C102.18 130.774 118.89 142.11 118.89 143.521C118.89 144.932 102.56 136.104 93.7703 130.975C84.9803 125.846 70.3503 116.988 70.3503 115.436V115.446Z" fill="black"/>
<path opacity="0.05" d="M0.0599976 65C6.63 68.8293 27.06 80.4987 32.8 84.9024C38.54 89.3061 44.4 96.4106 55.4 102.82C55.4 102.82 44.05 98.0431 37.52 91.8053C30.99 85.5675 0 68.0937 0 68.0937L0.0599976 65Z" fill="white"/>
<path opacity="0.2" d="M19.5703 61.3018L167.19 148.893L168.19 152.954L169.7 150.394L184.57 159.756L186.44 201.757V158.345L169.94 148.752L168.5 147.885L167.06 147.069L19.5703 61.3018Z" fill="white"/>
<path d="M197.18 195.499L186.44 201.757V158.345L197.18 151.966V195.499Z" fill="#37474F"/>
<path d="M169.94 148.751L168.14 161.408L167.06 147.068L168.5 147.885L169.94 148.751Z" fill="#263238"/>
<path d="M167.06 147.068L168.5 147.885L168.14 161.408L167.06 147.068Z" fill="#37474F"/>
<path d="M0.0195312 78L1.61952 80.9929L0.0195312 81.8092L5.37952 83.3812L0.0195312 78Z" fill="#37474F"/>
<path d="M0.0195312 78L1.61952 80.9929L5.37952 83.3812L0.0195312 78Z" fill="#263238"/>
<path d="M190.99 195.43L186.44 195.591L178.1 192.023L186.44 200.125L190.99 195.43Z" fill="#263238"/>
<path d="M190.99 195.43L186.44 197.747L178.1 192.023L186.44 195.591L190.99 195.43Z" fill="#37474F"/>
<path d="M0.00976562 49.9248L186.44 158.345L197.18 151.966L10.8698 43.6064L0.00976562 49.9248Z" fill="#263238"/>
<path d="M5.00977 50.5189L190.27 158.264V114.852L23.3998 17.8084L21.5998 30.4653L20.5198 16.1255L5.00977 7.10645V50.5189Z" fill="#455A64"/>
<path opacity="0.05" d="M190.27 151.039C180.57 145.385 139.78 122.188 135.07 119.93C121.41 113.34 109.63 108.16 91.3604 97.6699C91.3604 97.6699 99.8304 103.716 118.11 113.269C126.69 117.724 134.56 121.533 138.68 123.599C142.8 125.664 190.27 153.205 190.27 153.205V151.039Z" fill="white"/>
<path opacity="0.1" d="M5.05005 16.418L19.79 25.0138C34.05 33.3275 43.62 39.3032 49.79 45.0271C55.96 50.7509 67.9501 58.0065 73.3701 60.949C73.3701 60.949 67.04 58.6414 55.2 51.2447C43.36 43.8481 41.2 40.0087 24.36 30.1935L5.04004 18.9373L5.05005 16.418Z" fill="black"/>
<path opacity="0.1" d="M190.27 145.89C180.08 139.944 146.01 120.163 140.62 117.019C135.23 113.875 122.51 111.406 115.54 107.345C119.356 109.999 123.468 112.194 127.79 113.885C134.88 116.626 183.64 144.358 190.27 148.218V145.89Z" fill="black"/>
<path opacity="0.05" d="M5.01978 37.4395L56.6898 67.6105C67.4598 73.8886 85.3598 86.4951 100.45 94.7282C115.54 102.961 126.64 107.687 126.64 107.687C126.64 107.687 112.21 103.546 100.28 96.6025C88.3498 89.6594 66.6298 75.9645 53.5398 68.326L5.00977 39.9688L5.01978 37.4395Z" fill="white"/>
<path opacity="0.05" d="M190.27 130.361C180.27 124.527 147.15 105.289 139.27 100.674C131.39 96.0585 119.27 87.5735 105.86 79.7133C95.3176 73.5343 84.3145 68.1907 72.9499 63.7309C66.8714 61.2102 60.9476 58.3264 55.21 55.0947C62.2463 59.8269 69.6619 63.9594 77.3799 67.4493C90.6899 73.4957 106.63 81.9403 120.78 92.078C134.93 102.216 190.29 133.213 190.29 133.213L190.27 130.361Z" fill="white"/>
<path opacity="0.05" d="M5.0598 10.583C62.9498 43.6261 62.6898 43.4245 78.8098 52.8568C93.8098 61.5937 113.41 73.7467 113.41 73.7467C113.41 73.7467 81.7298 56.7667 50.0498 38.2952L5.0498 12.0946L5.0598 10.583Z" fill="white"/>
<path opacity="0.1" d="M190.27 122.208C190.27 122.208 121.04 81.8993 101.52 70.5524C81.9995 59.2055 60.2695 48.6748 60.2695 48.6748C60.2695 48.6748 76.4795 59.4675 100.45 73.4848C107.55 77.6366 190.27 125.765 190.27 125.765V122.208Z" fill="black"/>
<path opacity="0.1" d="M5.00999 43.6973L57.49 74.2916C68.49 80.7007 97.02 98.2148 103.82 102.568C103.82 102.568 75.73 87.6942 38.37 65.9174L5 46.4483L5.00999 43.6973Z" fill="black"/>
<path opacity="0.1" d="M5.01953 33.852L49.0495 59.5488C59.5595 65.6757 84.0495 82.3333 94.8595 88.6114C105.67 94.8895 176.75 133.898 190.27 141.779V138.755C181.88 133.868 113.78 89.3067 97.4995 79.8241C81.2195 70.3415 64.5795 65.575 54.4295 59.6697L5.02953 30.8691L5.01953 33.852ZM74.1895 71.9437C74.1895 70.4221 88.0695 76.8009 97.5995 82.3635C106.01 87.2711 122.72 98.608 122.72 100.019C122.72 101.43 106.39 92.6019 97.5995 87.4727C88.8095 82.3434 74.1795 73.4654 74.1895 71.9437Z" fill="black"/>
<path opacity="0.05" d="M5.05 22.1826C11.63 26.0119 30.93 36.9961 36.63 41.4099C42.33 45.8237 48.23 52.918 59.23 59.3271C59.23 59.3271 47.88 54.5505 41.35 48.3027C34.82 42.0548 5 25.2864 5 25.2864L5.05 22.1826Z" fill="white"/>
<path d="M23.3995 17.8089L21.9595 16.9725L20.5195 16.126L21.5995 30.4658L23.3995 17.8089Z" fill="#263238"/>
<path opacity="0.2" d="M23.4004 17.8086L188.41 116.263L190.27 158.264V114.852L23.4004 17.8086Z" fill="white"/>
<path d="M190.27 128.557L180.15 125.534L190.27 133.858V128.557Z" fill="#37474F"/>
<path d="M201.01 151.966L190.27 158.264V114.852L201.01 108.433V151.966Z" fill="#37474F"/>
<path d="M190.27 114.852L201.01 108.433L15.9198 0.77832L5.00977 7.10679L190.27 114.852Z" fill="#263238"/>
<path d="M190.27 128.557L193.14 129.585L190.27 133.857V128.557Z" fill="#37474F"/>
<path d="M193.14 129.585L190.27 131.258L180.15 125.534L190.27 133.858L193.14 129.585Z" fill="#263238"/>
<path d="M20.5195 16.126L21.9595 16.9725L21.5995 30.4658L20.5195 16.126Z" fill="#37474F"/>
<path d="M8.73047 100.653L193.99 208.399V251.811L27.1205 154.768L25.3205 140.015L24.2405 153.085L8.73047 144.066V100.653Z" fill="#455A64"/>
<path opacity="0.05" d="M193.95 215.624C184.25 209.99 143.45 185.795 138.75 182.591C125.09 173.279 113.31 164.754 95.0303 153.981C95.0303 153.981 103.51 157.74 121.79 169.51C130.37 175.043 157.47 191.529 161.59 194.26C165.71 196.991 193.95 213.467 193.95 213.467V215.624Z" fill="white"/>
<path opacity="0.1" d="M8.76953 134.794L23.5095 143.36C37.7595 151.633 47.3395 156.793 53.5095 158.274C59.6795 159.755 71.6795 166.437 77.0595 169.762C71.3381 165.459 65.2819 161.627 58.9495 158.304C47.0995 151.915 44.9495 153.266 28.1095 143.481L8.78952 132.255L8.76953 134.794Z" fill="black"/>
<path opacity="0.1" d="M193.95 220.783C183.75 214.868 168.95 206.242 163.53 203.108C158.11 199.974 126.19 176.504 119.22 172.453C123.583 174.549 127.693 177.142 131.47 180.182C138.56 185.674 187.31 214.606 193.95 218.476V220.783Z" fill="black"/>
<path opacity="0.05" d="M8.74042 113.744L60.4104 143.754C71.1804 150.001 89.0804 158.235 104.16 167.546C119.24 176.857 130.36 185.07 130.36 185.07C130.36 185.07 115.95 172.413 103.95 165.49C91.9504 158.567 70.3104 146.988 57.2104 139.38L8.69043 111.164L8.74042 113.744Z" fill="white"/>
<path opacity="0.05" d="M193.95 236.302L162.14 217.831C154.22 213.226 122.93 196.568 109.5 188.768C98.0684 182.065 87.0818 174.619 76.6102 166.478C70.9346 162.17 65.04 158.164 58.9502 154.476C58.9502 154.476 67.8102 158.506 81.1202 167.919C94.4302 177.331 110.37 187.458 124.52 193.787C138.67 200.115 193.95 233.46 193.95 233.46V236.302Z" fill="white"/>
<path opacity="0.05" d="M8.77977 140.65C8.77977 140.65 67.5398 175.487 82.5198 184.183C97.4998 192.88 117.13 203.572 117.13 203.572C117.13 203.572 85.4498 183.68 53.7598 165.279L8.75977 139.148L8.77977 140.65Z" fill="white"/>
<path opacity="0.1" d="M193.95 244.455L105.2 192.92C85.7302 181.593 63.9502 166.8 63.9502 166.8C63.9502 166.8 80.1602 174.862 104.13 188.748C111.27 192.859 193.95 240.938 193.95 240.938V244.485" fill="black"/>
<path opacity="0.1" d="M8.72972 107.475L61.2097 137.959C72.2097 144.348 100.74 160.018 107.54 163.585C107.54 163.585 79.4497 145.769 42.0897 124.082L8.71973 104.704L8.72972 107.475Z" fill="black"/>
<path opacity="0.1" d="M8.75 120.404L58.15 149.094C68.29 154.979 84.95 169.591 101.22 179.043C117.49 188.496 185.6 223.111 193.99 227.978V224.955C180.47 217.105 109.34 173.43 98.58 167.183C87.82 160.935 63.28 149.044 52.76 142.937L8.75999 117.371L8.75 120.404ZM101.32 171.405C110.11 176.514 126.44 186.682 126.44 188.093C126.44 189.504 109.73 181.401 101.32 176.524C91.78 170.982 77.91 161.217 77.9 159.695C77.89 158.174 92.52 166.366 101.32 171.405Z" fill="black"/>
<path opacity="0.05" d="M8.76973 129.081C15.3497 132.9 34.6497 144.378 40.3497 146.595C46.0497 148.812 51.9498 148.611 62.9498 154.989C62.9498 154.989 51.5998 146.555 45.0697 145.194C38.5397 143.834 8.71973 125.927 8.71973 125.927L8.76973 129.081Z" fill="white"/>
<path d="M27.1202 154.768L25.1802 150.273L24.2402 153.085L25.3202 140.015L27.1202 154.768Z" fill="#263238"/>
<path opacity="0.2" d="M27.1201 111.355L192.12 209.809L193.99 251.811V208.399L27.1201 111.355Z" fill="white"/>
<path d="M193.99 238.106L183.87 229.359L193.99 232.806V238.106Z" fill="#37474F"/>
<path d="M204.73 202.171L193.99 208.399V251.811L204.73 245.573V202.171Z" fill="#37474F"/>
<path d="M193.99 238.106L201.86 230.226L193.99 232.805V238.106Z" fill="#37474F"/>
<path d="M201.86 230.226L193.99 235.406L183.87 229.359L193.99 232.806L201.86 230.226Z" fill="#263238"/>
<path d="M24.2402 153.085L25.1803 150.273L25.3203 140.015L24.2402 153.085Z" fill="#37474F"/>
<path d="M95.9498 80.509C98.7801 82.1482 101.299 84.2807 103.39 86.8072C105.459 89.3274 107.194 92.1086 108.55 95.0806C109.908 98.1288 110.915 101.324 111.55 104.604C112.219 107.88 112.617 111.207 112.74 114.55C112.813 117.156 112.85 119.844 112.85 122.611C112.85 125.379 112.813 127.983 112.74 130.421C112.66 133.312 112.261 136.185 111.55 138.987C111.072 141.201 110.04 143.255 108.55 144.953C107.188 146.358 105.338 147.174 103.39 147.23C101.31 147.331 98.8298 146.541 95.9498 144.862C93.1177 143.229 90.5981 141.1 88.5098 138.574C86.438 136.052 84.7032 133.267 83.3498 130.29C81.9915 127.246 80.9849 124.054 80.3498 120.777C79.6814 117.501 79.2833 114.174 79.1598 110.831C79.0865 108.346 79.0498 105.699 79.0498 102.89C79.0498 100.082 79.0865 97.4219 79.1598 94.9093C79.2395 92.0151 79.6386 89.1388 80.3498 86.3336C80.8271 84.1223 81.8601 82.0715 83.3498 80.378C84.7083 78.9685 86.5605 78.151 88.5098 78.1006C90.5898 78.0334 93.0698 78.8362 95.9498 80.509ZM102.12 123.841C102.266 118.863 102.266 113.851 102.12 108.806C102.049 107.345 101.905 105.889 101.69 104.442C101.493 103.127 101.158 101.837 100.69 100.593C100.241 99.4163 99.6171 98.3154 98.8398 97.3278C98.0452 96.3123 97.064 95.4604 95.9498 94.8186C95.1007 94.2389 94.0953 93.9364 93.0698 93.952C92.7116 93.9535 92.3585 94.0379 92.0378 94.1986C91.717 94.3594 91.4372 94.5921 91.2198 94.8791C90.6931 95.7366 90.3334 96.6873 90.1598 97.6805C89.9169 98.9765 89.7898 100.292 89.7798 101.611C89.5865 106.448 89.5865 111.456 89.7798 116.636C89.8108 118.087 89.9378 119.535 90.1598 120.969C90.3438 122.293 90.6793 123.592 91.1598 124.838C91.6268 126.019 92.26 127.125 93.0398 128.124C93.8343 129.127 94.8119 129.969 95.9198 130.603C96.7648 131.192 97.7723 131.499 98.7998 131.479C99.173 131.439 99.5335 131.319 99.8575 131.128C100.182 130.937 100.462 130.679 100.68 130.371C101.204 129.569 101.546 128.661 101.68 127.71C101.927 126.427 102.074 125.127 102.12 123.821V123.841Z" fill="#263238"/>
<path d="M108.55 144.993C107.191 146.408 105.334 147.23 103.38 147.28C101.31 147.381 98.8403 146.595 95.9503 144.922C93.1211 143.286 90.6049 141.153 88.5203 138.624C87.5443 137.439 86.6425 136.194 85.8203 134.895L89.3403 132.88C90.0603 133.948 90.8203 134.976 91.6403 135.974C93.7249 138.502 96.2411 140.635 99.0703 142.272C101.95 143.945 104.434 144.731 106.52 144.63C107.507 144.586 108.48 144.378 109.4 144.015C109.139 144.36 108.855 144.686 108.55 144.993Z" fill="#37474F"/>
<path d="M102.77 95.8261L99.2399 97.912C99.1099 97.7105 98.9799 97.4989 98.8399 97.3074C98.0397 96.3027 97.0594 95.4584 95.9499 94.8183C95.1008 94.2386 94.0954 93.9361 93.0699 93.9517C92.7115 93.9525 92.3582 94.0365 92.0373 94.1973C91.7165 94.3581 91.4367 94.5913 91.2199 94.8788C90.9199 95.3121 90.8999 95.3524 91.2199 94.8788C91.3939 94.6247 91.6104 94.4031 91.8599 94.2238L94.9499 91.7952C95.3132 91.5022 95.7558 91.3265 96.2199 91.2913C97.2464 91.2677 98.2543 91.5709 99.0999 92.158C100.199 92.7837 101.167 93.6188 101.95 94.6168C102.25 95.0005 102.524 95.4046 102.77 95.8261Z" fill="#37474F"/>
<path d="M111.6 104.412C110.966 101.136 109.96 97.9436 108.6 94.8995C107.246 91.923 105.512 89.1381 103.44 86.6161C101.349 84.0895 98.8303 81.957 95.9999 80.3178C93.1199 78.645 90.6399 77.859 88.5599 77.9598C87.6289 78.0035 86.7122 78.208 85.8499 78.5644C84.7195 80.0975 83.9098 81.8459 83.4699 83.7038C82.7623 86.506 82.3665 89.3789 82.2899 92.2694C82.2099 94.7886 82.1699 97.4591 82.1699 100.261C82.1699 103.062 82.1699 105.702 82.2899 108.191C82.4088 111.534 82.8035 114.861 83.4699 118.137C84.105 121.417 85.1116 124.612 86.4699 127.66C87.8233 130.636 89.5617 133.418 91.6399 135.934C93.7219 138.465 96.2386 140.598 99.0699 142.232C101.96 143.915 104.43 144.691 106.51 144.59C107.499 144.546 108.475 144.342 109.4 143.985C110.484 142.417 111.255 140.651 111.67 138.786C112.352 136 112.727 133.148 112.79 130.28C112.863 127.882 112.9 125.282 112.9 122.481C112.9 119.669 112.9 116.969 112.79 114.359C112.666 111.016 112.268 107.689 111.6 104.412ZM105.24 121.13C105.218 122.438 105.094 123.742 104.87 125.03C104.74 125.982 104.398 126.891 103.87 127.691C103.683 127.944 103.456 128.165 103.2 128.346C103.2 128.346 100.32 130.673 100.07 130.855C99.71 131.094 99.2985 131.242 98.8699 131.288C97.8425 131.308 96.835 131.001 95.9899 130.411C94.8798 129.781 93.9018 128.939 93.1099 127.932C92.3301 126.934 91.6969 125.828 91.2299 124.647C90.7495 123.401 90.4139 122.102 90.2299 120.778C90.0079 119.347 89.8809 117.903 89.8499 116.455C89.6566 111.268 89.6566 106.256 89.8499 101.419C89.8711 100.117 90.0049 98.8188 90.2499 97.5397C90.4058 96.5951 90.7456 95.6909 91.2499 94.8793C91.4267 94.6276 91.6429 94.4064 91.8899 94.2243C92.2399 93.9623 94.7299 91.9368 94.9499 91.7756C95.3181 91.4895 95.7576 91.3116 96.2199 91.2616C97.2465 91.249 98.252 91.5551 99.0999 92.1383C100.196 92.7766 101.163 93.6176 101.95 94.6173C102.716 95.6105 103.336 96.7102 103.79 97.8823C104.261 99.1285 104.597 100.423 104.79 101.742C105.005 103.188 105.149 104.645 105.22 106.105C105.393 111.144 105.4 116.152 105.24 121.13Z" fill="#FF725E"/>
<path d="M58.6503 122.32C58.1569 121.992 57.7734 121.521 57.5503 120.969C57.245 120.342 57.0875 119.652 57.0903 118.954V109.834L38.9503 99.3033C38.4547 98.9777 38.0706 98.5062 37.8503 97.953C37.5446 97.3259 37.3872 96.6361 37.3903 95.9375V86.4549C37.3007 85.2666 37.5617 84.0781 38.1403 83.0387L55.3803 59.3473C55.5981 58.9921 55.9352 58.7275 56.3303 58.6016C56.7539 58.6001 57.1671 58.7341 57.5103 58.9845L66.2203 64.0231C66.7108 64.3543 67.0935 64.824 67.3203 65.3734C67.6188 66.003 67.7758 66.6912 67.7803 67.3889V101.732L72.7303 104.624C73.2259 104.95 73.61 105.421 73.8303 105.974C74.136 106.601 74.2934 107.291 74.2903 107.99V117.472C74.3146 117.73 74.2864 117.99 74.2073 118.236C74.1281 118.482 73.9999 118.709 73.8303 118.903C73.6875 119.048 73.4974 119.136 73.2953 119.151C73.0931 119.166 72.8924 119.107 72.7303 118.984L67.7803 116.102V125.222C67.8023 125.479 67.773 125.738 67.6939 125.984C67.6149 126.23 67.4879 126.457 67.3203 126.653C67.1774 126.798 66.9874 126.886 66.7853 126.9C66.5831 126.915 66.3824 126.856 66.2203 126.733L58.6503 122.32ZM57.3803 95.7259V79.2699L48.9503 90.7881L57.3803 95.7259Z" fill="#263238"/>
<path d="M73.8097 118.883C73.9793 118.689 74.1076 118.462 74.1867 118.215C74.2658 117.969 74.2941 117.71 74.2697 117.452V115.366L70.8797 113.351L67.7598 116.041L72.7097 118.923C72.8672 119.051 73.0651 119.117 73.2672 119.11C73.4693 119.103 73.6619 119.022 73.8097 118.883Z" fill="#37474F"/>
<path d="M67.7603 123.115V125.201C67.7838 125.459 67.7543 125.72 67.6734 125.966C67.5925 126.212 67.4621 126.439 67.2902 126.632C67.1474 126.777 66.9574 126.865 66.7552 126.88C66.5531 126.895 66.3524 126.835 66.1902 126.713L58.6502 122.319C58.1572 121.991 57.7739 121.52 57.5502 120.969L57.4902 120.807L60.6102 118.127C60.6256 118.182 60.6457 118.236 60.6702 118.288C60.897 118.838 61.2797 119.307 61.7702 119.639L67.7603 123.115Z" fill="#37474F"/>
<path d="M60.2098 107.193L57.0898 109.874L38.9498 99.3027C38.4625 98.973 38.0859 98.5022 37.8698 97.9523C37.8198 97.8516 37.7998 97.7609 37.7598 97.6601L40.9898 95.2617C41.2066 95.8197 41.5912 96.2954 42.0898 96.6221L60.2098 107.193Z" fill="#37474F"/>
<path d="M72.7102 104.463L67.7602 101.581V67.2277C67.7584 66.5296 67.6012 65.8409 67.3002 65.2122C67.0765 64.6609 66.6932 64.1904 66.2002 63.8619L57.4902 58.8233C57.3597 58.7468 57.2224 58.6827 57.0802 58.6318L41.2402 80.4086C40.6635 81.445 40.4026 82.6297 40.4902 83.8147V93.2973C40.4909 93.9966 40.6518 94.6863 40.9602 95.3128C41.1767 95.8653 41.5574 96.3369 42.0502 96.6631L60.2102 107.234V116.354C60.2147 117.035 60.3719 117.707 60.6702 118.319C60.8953 118.872 61.2781 119.345 61.7702 119.679L67.7702 123.156V116.102L70.8902 113.411L74.2802 115.427V107.849C74.2808 107.15 74.1235 106.461 73.8202 105.833C73.6007 105.271 73.2127 104.792 72.7102 104.463ZM60.5002 93.0454L57.3802 95.5445L48.9502 90.647L57.3702 79.0784L60.4902 76.5894L60.5002 93.0454Z" fill="#FF725E"/>
<path d="M138.85 168.977C138.355 168.651 137.971 168.18 137.75 167.627C137.452 167.015 137.295 166.343 137.29 165.662V156.532L119.13 145.971C118.634 145.641 118.251 145.166 118.03 144.61C117.732 143.999 117.575 143.327 117.57 142.645V133.163C117.483 131.978 117.744 130.793 118.32 129.757L135.56 106.065C135.769 105.702 136.11 105.435 136.51 105.319C136.933 105.315 137.346 105.446 137.69 105.692L146.4 110.731C146.89 111.06 147.27 111.531 147.49 112.081C147.796 112.708 147.953 113.398 147.95 114.097V148.43L152.95 151.312C153.446 151.637 153.83 152.109 154.05 152.662C154.354 153.29 154.511 153.979 154.51 154.677V164.16C154.533 164.418 154.505 164.677 154.426 164.923C154.347 165.169 154.219 165.396 154.05 165.591C153.906 165.734 153.716 165.821 153.513 165.834C153.311 165.847 153.111 165.785 152.95 165.662L147.95 162.78V171.849C147.975 172.107 147.947 172.367 147.868 172.613C147.789 172.859 147.66 173.086 147.49 173.28C147.35 173.426 147.162 173.515 146.961 173.53C146.76 173.545 146.56 173.484 146.4 173.361L138.85 168.977ZM137.58 142.393V125.927L129.16 137.496L137.58 142.393Z" fill="#263238"/>
<path d="M154.01 165.55C154.179 165.355 154.306 165.128 154.385 164.882C154.464 164.636 154.493 164.376 154.47 164.119V162.033L151.08 160.018L147.95 162.738L152.95 165.62C153.108 165.734 153.299 165.788 153.493 165.776C153.686 165.763 153.869 165.683 154.01 165.55Z" fill="#37474F"/>
<path d="M147.95 169.782V171.868C147.972 172.125 147.943 172.384 147.862 172.628C147.781 172.873 147.651 173.098 147.48 173.289C147.338 173.436 147.148 173.526 146.945 173.54C146.742 173.555 146.541 173.495 146.38 173.37L138.84 168.986C138.348 168.652 137.965 168.179 137.74 167.626L137.68 167.465L140.8 164.784C140.811 164.841 140.831 164.895 140.86 164.945C141.086 165.495 141.469 165.965 141.96 166.296L147.95 169.782Z" fill="#37474F"/>
<path d="M140.41 153.851L137.29 156.542L119.12 145.961C118.627 145.636 118.249 145.164 118.04 144.61C117.994 144.52 117.958 144.425 117.93 144.328L121.16 141.93C121.379 142.481 121.759 142.951 122.25 143.28L140.41 153.851Z" fill="#37474F"/>
<path d="M152.95 151.119L147.95 148.227V113.884C147.946 113.203 147.788 112.531 147.49 111.919C147.27 111.369 146.89 110.898 146.4 110.569L137.69 105.53C137.558 105.458 137.421 105.394 137.28 105.339L121.44 127.065C120.861 128.105 120.601 129.293 120.69 130.481V139.964C120.698 140.646 120.859 141.318 121.16 141.929C121.377 142.482 121.757 142.953 122.25 143.279L140.41 153.85V162.92C140.407 163.618 140.565 164.308 140.87 164.935C141.093 165.487 141.477 165.958 141.97 166.286L147.97 169.762V162.708L151.1 160.028L154.49 162.043V154.455C154.486 153.773 154.328 153.102 154.03 152.49C153.812 151.936 153.436 151.459 152.95 151.119ZM140.74 139.702L137.58 142.181L129.16 137.284L137.58 125.715L140.7 123.226L140.74 139.702Z" fill="#FF725E"/>
<path d="M42.8299 140.055C42.9243 140.12 42.9974 140.211 43.0399 140.317C43.0978 140.433 43.1286 140.561 43.1299 140.69V142.514C43.1342 142.565 43.1285 142.616 43.1131 142.664C43.0976 142.713 43.0727 142.758 43.0399 142.796C43.0108 142.822 42.9735 142.836 42.9349 142.836C42.8963 142.836 42.859 142.822 42.8299 142.796L37.5699 139.773C37.4777 139.707 37.4052 139.616 37.3599 139.511C37.3049 139.391 37.2775 139.26 37.2799 139.128V128.043C37.2741 127.993 37.2782 127.943 37.292 127.894C37.3057 127.846 37.3288 127.801 37.3599 127.761C37.389 127.736 37.4263 127.722 37.4649 127.722C37.5035 127.722 37.5407 127.736 37.5699 127.761L42.7499 130.784C42.842 130.851 42.9146 130.942 42.9599 131.046C43.0111 131.168 43.0383 131.298 43.0399 131.429V133.253C43.0459 133.351 43.0176 133.447 42.9599 133.525C42.9299 133.549 42.893 133.562 42.8549 133.562C42.8168 133.562 42.7798 133.549 42.7499 133.525L39.3299 131.51V133.374L42.4999 135.218C42.5943 135.283 42.6674 135.374 42.7099 135.48C42.7678 135.596 42.7986 135.724 42.7999 135.853V137.687C42.8034 137.736 42.7973 137.786 42.7819 137.832C42.7664 137.879 42.742 137.922 42.7099 137.959C42.6818 137.987 42.6441 138.003 42.6049 138.003C42.5656 138.003 42.5279 137.987 42.4999 137.959L39.3299 136.135V138.07L42.8299 140.055Z" fill="#FAFAFA"/>
<path d="M48.2996 137.042C48.3996 137.103 48.4769 137.195 48.5196 137.304C48.5696 137.422 48.5967 137.549 48.5996 137.677V139.42C48.6056 139.518 48.5773 139.614 48.5196 139.692C48.4889 139.719 48.4499 139.733 48.4096 139.733C48.3693 139.733 48.3303 139.719 48.2996 139.692L47.2996 139.108C46.6196 138.715 46.2996 139.047 46.2996 140.116V144.358C46.3032 144.407 46.297 144.456 46.2816 144.503C46.2662 144.55 46.2417 144.593 46.2096 144.63C46.1596 144.691 46.0896 144.691 45.9996 144.63L44.6096 143.824C44.5124 143.763 44.4384 143.671 44.3996 143.562C44.3415 143.443 44.3107 143.312 44.3096 143.179V135.117C44.306 135.068 44.3121 135.019 44.3276 134.972C44.343 134.925 44.3675 134.882 44.3996 134.845C44.4496 134.785 44.5196 134.785 44.6096 134.845L45.8896 135.591C45.984 135.655 46.0571 135.746 46.0996 135.853C46.1575 135.969 46.1883 136.096 46.1896 136.226V136.629C46.3601 136.472 46.5791 136.379 46.8096 136.367C47.1148 136.362 47.4143 136.45 47.6696 136.619L48.2996 137.042Z" fill="#FAFAFA"/>
<path d="M53.4004 140.005C53.4971 140.066 53.5709 140.158 53.6104 140.267C53.6683 140.382 53.6991 140.51 53.7004 140.64V142.383C53.7039 142.432 53.6978 142.481 53.6824 142.528C53.6669 142.575 53.6425 142.618 53.6104 142.655C53.5823 142.683 53.5446 142.698 53.5054 142.698C53.4661 142.698 53.4284 142.683 53.4004 142.655L52.4004 142.071C51.7204 141.677 51.4004 142.01 51.4004 143.078V147.321C51.404 147.37 51.3978 147.419 51.3824 147.466C51.3669 147.513 51.3424 147.556 51.3104 147.593C51.2823 147.621 51.2446 147.636 51.2054 147.636C51.1661 147.636 51.1284 147.621 51.1004 147.593L49.7004 146.787C49.6083 146.72 49.5357 146.629 49.4904 146.525C49.4323 146.405 49.4016 146.275 49.4004 146.142V138.08C49.3968 138.031 49.4029 137.982 49.4184 137.935C49.4338 137.888 49.4583 137.845 49.4904 137.808C49.5184 137.78 49.5561 137.765 49.5954 137.765C49.6346 137.765 49.6723 137.78 49.7004 137.808L50.9904 138.554C51.0848 138.618 51.1579 138.709 51.2004 138.816C51.2583 138.931 51.2891 139.059 51.2904 139.188V139.592C51.4554 139.432 51.6722 139.339 51.9004 139.33C52.2056 139.325 52.5051 139.413 52.7604 139.581L53.4004 140.005Z" fill="#FAFAFA"/>
<path d="M60.2002 147.784C60.2002 147.955 60.2002 148.177 60.2002 148.449C60.2002 148.721 60.2002 148.932 60.2002 149.104C60.1937 149.585 60.1092 150.061 59.9502 150.515C59.8339 150.868 59.6227 151.182 59.3402 151.422C59.0785 151.636 58.7468 151.744 58.4102 151.724C57.9731 151.704 57.549 151.568 57.1802 151.331C56.7188 151.064 56.3034 150.724 55.9502 150.323C55.5827 149.898 55.2702 149.427 55.0202 148.922C54.7568 148.41 54.5522 147.869 54.4102 147.31C54.265 146.757 54.1811 146.189 54.1602 145.617C54.1602 145.436 54.1602 145.214 54.1602 144.942C54.1602 144.67 54.1602 144.458 54.1602 144.287C54.1608 143.807 54.2384 143.331 54.3902 142.876C54.5138 142.524 54.7277 142.211 55.0102 141.969C55.2778 141.758 55.6103 141.647 55.9502 141.657C56.3872 141.677 56.8114 141.813 57.1802 142.05C57.6416 142.317 58.0569 142.657 58.4102 143.058C58.7755 143.49 59.0908 143.964 59.3502 144.468C59.6093 144.986 59.8138 145.53 59.9602 146.091C60.0988 146.645 60.1792 147.212 60.2002 147.784ZM56.2002 146.665C56.2118 147.085 56.3141 147.498 56.5002 147.874C56.6573 148.203 56.908 148.476 57.2202 148.66C57.3253 148.736 57.4511 148.777 57.5802 148.777C57.7093 148.777 57.8351 148.736 57.9402 148.66C58.0461 148.548 58.1275 148.415 58.1792 148.269C58.2308 148.123 58.2516 147.968 58.2402 147.814C58.2511 147.626 58.2511 147.438 58.2402 147.25C58.2509 147.048 58.2509 146.846 58.2402 146.645C58.2275 146.228 58.1251 145.819 57.9402 145.446C57.7796 145.12 57.5298 144.847 57.2202 144.66C56.9202 144.488 56.6802 144.468 56.5002 144.609C56.3943 144.722 56.3129 144.855 56.2612 145.001C56.2095 145.146 56.1888 145.301 56.2002 145.456C56.1893 145.647 56.1893 145.839 56.2002 146.03C56.1746 146.241 56.1613 146.453 56.1602 146.665H56.2002Z" fill="#FAFAFA"/>
<path d="M65.27 146.908C65.3621 146.975 65.4346 147.065 65.48 147.17C65.538 147.289 65.5688 147.42 65.57 147.553V149.286C65.5754 149.335 65.5701 149.385 65.5546 149.432C65.539 149.479 65.5136 149.522 65.48 149.558C65.4519 149.586 65.4142 149.601 65.375 149.601C65.3357 149.601 65.298 149.586 65.27 149.558L64.27 148.974C63.59 148.571 63.27 148.903 63.27 149.981V154.214C63.2754 154.263 63.2701 154.313 63.2546 154.36C63.239 154.407 63.2136 154.45 63.18 154.486C63.1519 154.514 63.1142 154.529 63.075 154.529C63.0357 154.529 62.998 154.514 62.97 154.486L61.57 153.67C61.4756 153.605 61.4024 153.514 61.36 153.408C61.302 153.292 61.2713 153.164 61.27 153.035V144.973C61.2656 144.922 61.2713 144.871 61.2868 144.823C61.3022 144.774 61.3271 144.73 61.36 144.691C61.3891 144.665 61.4264 144.651 61.465 144.651C61.5036 144.651 61.5408 144.665 61.57 144.691L62.86 145.437C62.9521 145.503 63.0246 145.594 63.07 145.699C63.128 145.818 63.1588 145.949 63.16 146.082V146.475C63.3278 146.32 63.543 146.227 63.77 146.213C64.076 146.212 64.3752 146.304 64.63 146.475L65.27 146.908Z" fill="#FAFAFA"/>
<path d="M65.7099 153.609C65.7213 153.471 65.7697 153.339 65.8499 153.226C65.9299 153.135 66.0399 153.125 66.1899 153.226L67.5499 154.012C67.6292 154.063 67.6918 154.137 67.7299 154.224C67.771 154.323 67.7947 154.429 67.7999 154.536C67.7999 154.587 67.7999 154.617 67.7999 154.647L66.9299 157.569C66.8979 157.672 66.847 157.768 66.7799 157.852C66.7099 157.932 66.5999 157.932 66.4499 157.852L65.6199 157.368C65.5394 157.321 65.4789 157.245 65.4499 157.156C65.4032 157.062 65.3792 156.959 65.3799 156.854L65.7099 153.609Z" fill="#FAFAFA"/>
<path d="M74.7098 161.53C74.5041 161.408 74.3129 161.262 74.1398 161.097C73.9858 160.941 73.8453 160.772 73.7197 160.593C73.6051 160.431 73.5047 160.259 73.4198 160.079C73.3398 159.907 73.2697 159.766 73.2197 159.625V163.344C73.2251 163.393 73.2199 163.443 73.2044 163.49C73.1888 163.537 73.1634 163.58 73.1297 163.616C73.1017 163.644 73.064 163.659 73.0248 163.659C72.9855 163.659 72.9478 163.644 72.9198 163.616L71.5198 162.8C71.4231 162.738 71.3492 162.646 71.3097 162.538C71.2518 162.422 71.221 162.294 71.2197 162.165V150.838C71.2162 150.789 71.2223 150.74 71.2377 150.693C71.2532 150.646 71.2777 150.603 71.3097 150.566C71.3397 150.542 71.3767 150.529 71.4147 150.529C71.4528 150.529 71.4898 150.542 71.5198 150.566L72.8698 151.352C72.9642 151.416 73.0373 151.507 73.0798 151.614C73.1377 151.73 73.1685 151.857 73.1698 151.987V152.39C73.2298 152.309 73.3097 152.229 73.3797 152.148C73.4607 152.07 73.5607 152.014 73.6698 151.987C73.8076 151.951 73.952 151.951 74.0898 151.987C74.3096 152.038 74.5193 152.127 74.7098 152.249C75.0636 152.457 75.3812 152.723 75.6498 153.035C75.966 153.383 76.2289 153.777 76.4298 154.204C76.6622 154.701 76.8431 155.221 76.9698 155.756C77.1092 156.374 77.1829 157.006 77.1898 157.64C77.1898 157.811 77.1898 158.053 77.1898 158.346C77.1898 158.638 77.1898 158.87 77.1898 159.031C77.1941 159.579 77.12 160.126 76.9698 160.653C76.8716 161.001 76.6856 161.317 76.4298 161.57C76.3252 161.668 76.2023 161.743 76.0683 161.791C75.9343 161.84 75.7919 161.861 75.6498 161.852C75.315 161.824 74.9923 161.713 74.7098 161.53ZM75.2098 157.65C75.2315 157.315 75.2315 156.978 75.2098 156.642C75.1878 156.231 75.1 155.826 74.9498 155.443C74.8169 155.07 74.5539 154.759 74.2098 154.567C74.0848 154.485 73.9386 154.443 73.7898 154.446C73.6761 154.454 73.5695 154.505 73.4898 154.587C73.414 154.688 73.3533 154.8 73.3097 154.919C73.2683 155.068 73.2382 155.219 73.2197 155.373C73.2197 155.534 73.2197 155.736 73.2197 155.957C73.2197 156.179 73.2197 156.391 73.2197 156.572C73.24 156.758 73.27 156.943 73.3097 157.126C73.3577 157.311 73.4178 157.493 73.4898 157.67C73.5681 157.847 73.669 158.013 73.7898 158.164C73.9052 158.311 74.0478 158.434 74.2098 158.527C74.5598 158.728 74.8098 158.728 74.9498 158.527C75.1128 158.263 75.2026 157.961 75.2098 157.65Z" fill="#FAFAFA"/>
<path d="M77.8804 160.653C77.8461 160.368 77.8789 160.079 77.9762 159.809C78.0735 159.54 78.2325 159.297 78.4404 159.101C78.7261 158.963 79.0387 158.892 79.3554 158.892C79.6721 158.892 79.9848 158.963 80.2704 159.101L81.5704 159.514C81.574 159.251 81.5229 158.99 81.4204 158.748C81.3231 158.508 81.1466 158.309 80.9204 158.184C80.8058 158.105 80.6689 158.067 80.5304 158.073C80.4566 158.089 80.3857 158.116 80.3204 158.154C80.2949 158.177 80.2647 158.194 80.2319 158.205C80.1992 158.215 80.1645 158.218 80.1304 158.214C80.0559 158.196 79.9849 158.165 79.9204 158.124L78.5104 157.307C78.4332 157.254 78.3712 157.181 78.3304 157.096C78.2811 156.999 78.2603 156.891 78.2704 156.783C78.2871 156.537 78.3626 156.298 78.4904 156.088C78.6264 155.882 78.8169 155.717 79.0404 155.614C79.3025 155.504 79.5881 155.462 79.8704 155.493C80.2433 155.539 80.6018 155.666 80.9204 155.866C81.3613 156.117 81.7597 156.436 82.1004 156.814C82.4291 157.168 82.7053 157.569 82.9204 158.003C83.1381 158.434 83.3027 158.891 83.4104 159.363C83.5108 159.85 83.561 160.347 83.5604 160.844V166.064C83.564 166.113 83.5579 166.163 83.5424 166.21C83.527 166.256 83.5025 166.299 83.4704 166.336C83.4424 166.364 83.4047 166.38 83.3654 166.38C83.3262 166.38 83.2885 166.364 83.2604 166.336L81.8604 165.53C81.7683 165.464 81.6958 165.373 81.6504 165.268C81.5955 165.148 81.5681 165.017 81.5704 164.885V164.351C81.4953 164.465 81.398 164.562 81.2846 164.636C81.1711 164.711 81.0438 164.761 80.9104 164.785C80.553 164.799 80.2012 164.692 79.9104 164.482C79.5906 164.3 79.3033 164.065 79.0604 163.787C78.812 163.508 78.6033 163.196 78.4404 162.86C78.2694 162.513 78.1385 162.148 78.0504 161.772C77.9564 161.405 77.8994 161.031 77.8804 160.653ZM80.4104 162.517C80.5476 162.607 80.707 162.656 80.8704 162.658C81.0031 162.655 81.1304 162.605 81.2304 162.517C81.346 162.414 81.4323 162.282 81.4804 162.134C81.5442 161.943 81.5746 161.742 81.5704 161.54L80.5704 161.187C80.4929 161.154 80.4096 161.137 80.3254 161.137C80.2413 161.137 80.158 161.154 80.0804 161.187C80.0157 161.235 79.9648 161.299 79.9332 161.374C79.9015 161.448 79.8902 161.53 79.9004 161.61C79.8949 161.801 79.9435 161.99 80.0404 162.154C80.1337 162.303 80.2605 162.427 80.4104 162.517Z" fill="#FAFAFA"/>
<path d="M87.5303 170.014C87.6374 170.092 87.7601 170.144 87.8897 170.169C88.0193 170.193 88.1526 170.188 88.2803 170.155C88.4903 170.075 88.6003 169.833 88.6003 169.43V168.23C88.5348 168.318 88.4611 168.399 88.3803 168.472C88.3024 168.555 88.2011 168.611 88.0903 168.634C87.9525 168.668 87.8081 168.668 87.6703 168.634C87.4544 168.58 87.2484 168.491 87.0603 168.372C86.706 168.163 86.3856 167.902 86.1103 167.596C85.8028 167.242 85.5438 166.849 85.3403 166.427C85.1079 165.94 84.9269 165.43 84.8003 164.905C84.6579 164.304 84.5808 163.689 84.5703 163.071C84.5703 162.9 84.5703 162.688 84.5703 162.456C84.5703 162.224 84.5703 162.023 84.5703 161.852C84.5705 161.316 84.648 160.783 84.8003 160.269C84.9002 159.931 85.0864 159.626 85.3403 159.383C85.5524 159.195 85.8284 159.097 86.1103 159.111C86.4462 159.142 86.7709 159.248 87.0603 159.423C87.2875 159.556 87.4989 159.715 87.6903 159.897C87.8598 160.056 88.0138 160.232 88.1503 160.421C88.2645 160.585 88.368 160.757 88.4603 160.935C88.5403 161.106 88.6003 161.257 88.6503 161.388V160.995C88.6459 160.944 88.6517 160.893 88.6671 160.845C88.6826 160.796 88.7074 160.751 88.7403 160.713C88.7718 160.688 88.8105 160.675 88.8503 160.675C88.8901 160.675 88.9288 160.688 88.9603 160.713L90.2403 161.459C90.3347 161.523 90.4078 161.614 90.4503 161.721C90.5082 161.836 90.539 161.964 90.5403 162.093V170.478C90.5618 171.008 90.4837 171.538 90.3103 172.04C90.1975 172.386 89.9809 172.689 89.6903 172.906C89.3903 173.088 89.0331 173.149 88.6903 173.078C88.2588 173 87.8453 172.843 87.4703 172.614C86.9395 172.31 86.4629 171.918 86.0603 171.455C85.7183 171.058 85.4292 170.618 85.2003 170.145C85.0071 169.748 84.8627 169.328 84.7703 168.896C84.6909 168.565 84.644 168.228 84.6303 167.888C84.621 167.837 84.6243 167.785 84.64 167.735C84.6557 167.686 84.6833 167.641 84.7203 167.606C84.7494 167.58 84.7867 167.566 84.8253 167.566C84.8639 167.566 84.9012 167.58 84.9303 167.606L86.3703 168.442C86.5525 168.571 86.6779 168.766 86.7203 168.986C86.7731 169.175 86.854 169.356 86.9603 169.52C87.0988 169.737 87.2968 169.909 87.5303 170.014ZM86.5303 163.172C86.5214 163.306 86.5214 163.441 86.5303 163.575C86.522 163.722 86.522 163.87 86.5303 164.018C86.5465 164.415 86.6382 164.805 86.8003 165.167C86.9448 165.515 87.2022 165.802 87.5303 165.983C87.8303 166.165 88.0603 166.165 88.2203 165.983C88.3968 165.786 88.4994 165.533 88.5103 165.268C88.5503 164.906 88.5503 164.541 88.5103 164.179C88.4758 163.83 88.381 163.489 88.2303 163.172C88.0832 162.843 87.8387 162.568 87.5303 162.386C87.2103 162.194 86.9703 162.184 86.8103 162.386C86.6396 162.611 86.5512 162.888 86.5603 163.172H86.5303Z" fill="#FAFAFA"/>
<path d="M93.5602 168.825C93.5566 169.064 93.587 169.301 93.6502 169.531C93.7081 169.725 93.7886 169.911 93.8902 170.085C93.978 170.234 94.0857 170.369 94.2102 170.488C94.3188 170.586 94.4359 170.674 94.5602 170.75C94.7174 170.854 94.8947 170.922 95.0802 170.952C95.1989 170.962 95.3168 170.926 95.4102 170.851C95.4604 170.804 95.5228 170.773 95.5902 170.76C95.6585 170.758 95.7255 170.779 95.7802 170.821L97.2201 171.657C97.3032 171.715 97.3694 171.794 97.4117 171.886C97.4539 171.978 97.4707 172.08 97.4602 172.181C97.4478 172.369 97.3931 172.552 97.3002 172.715C97.1763 172.942 96.9974 173.132 96.7801 173.27C96.5121 173.442 96.1977 173.526 95.8802 173.511C95.4099 173.487 94.9543 173.338 94.5602 173.078C94.0795 172.793 93.6474 172.433 93.2802 172.01C92.8955 171.568 92.5756 171.072 92.3302 170.539C92.0733 169.964 91.8821 169.363 91.7602 168.745C91.6259 168.065 91.5589 167.373 91.5602 166.679C91.5524 166.095 91.6196 165.512 91.7602 164.946C91.8522 164.524 92.0483 164.132 92.3302 163.807C92.5807 163.548 92.9211 163.396 93.2802 163.384C93.7355 163.388 94.1801 163.524 94.5602 163.777C95.0977 164.089 95.5671 164.507 95.9402 165.006C96.3188 165.508 96.6314 166.056 96.8702 166.639C97.1083 167.223 97.2827 167.831 97.3902 168.453C97.4952 169.031 97.5488 169.618 97.5502 170.206V170.69C97.5537 170.739 97.5476 170.788 97.5322 170.835C97.5167 170.882 97.4922 170.925 97.4602 170.962C97.4321 170.99 97.3944 171.005 97.3552 171.005C97.3159 171.005 97.2782 170.99 97.2501 170.962L93.5602 168.825ZM94.5602 166.105C94.2502 165.923 94.0102 165.923 93.8502 166.105C93.673 166.333 93.5716 166.611 93.5602 166.901L95.5602 168.07C95.5239 167.677 95.426 167.293 95.2702 166.931C95.1252 166.587 94.8768 166.298 94.5602 166.105Z" fill="#FAFAFA"/>
<path d="M106.83 179.578C106.834 179.627 106.828 179.676 106.812 179.723C106.797 179.769 106.772 179.813 106.74 179.85C106.71 179.873 106.673 179.886 106.635 179.886C106.597 179.886 106.56 179.873 106.53 179.85L105.13 179.033C105.036 178.969 104.963 178.878 104.92 178.771C104.862 178.656 104.831 178.528 104.83 178.399V174.035C104.836 173.584 104.758 173.137 104.6 172.715C104.463 172.347 104.206 172.038 103.87 171.838C103.53 171.647 103.29 171.657 103.14 171.838C102.969 172.145 102.889 172.495 102.91 172.846V177.209C102.914 177.259 102.908 177.308 102.892 177.355C102.877 177.401 102.852 177.444 102.82 177.481C102.792 177.509 102.754 177.525 102.715 177.525C102.676 177.525 102.638 177.509 102.61 177.481L101.21 176.675C101.118 176.609 101.045 176.518 101 176.413C100.942 176.294 100.911 176.163 100.91 176.03V167.969C100.907 167.92 100.913 167.87 100.928 167.824C100.944 167.777 100.968 167.734 101 167.697C101.028 167.669 101.066 167.653 101.105 167.653C101.144 167.653 101.182 167.669 101.21 167.697L102.56 168.472C102.655 168.537 102.728 168.628 102.77 168.734C102.828 168.85 102.859 168.978 102.86 169.107V169.51C102.923 169.424 102.997 169.346 103.08 169.279C103.169 169.197 103.281 169.144 103.4 169.128C103.545 169.098 103.695 169.098 103.84 169.128C104.044 169.183 104.24 169.268 104.42 169.379C104.793 169.59 105.131 169.859 105.42 170.176C105.728 170.523 105.984 170.913 106.18 171.334C106.401 171.817 106.566 172.325 106.67 172.846C106.795 173.456 106.856 174.077 106.85 174.7L106.83 179.578Z" fill="#FAFAFA"/>
<path d="M113.85 178.993C113.85 179.175 113.85 179.396 113.85 179.668C113.85 179.94 113.85 180.152 113.85 180.323C113.847 180.8 113.766 181.274 113.61 181.724C113.493 182.08 113.282 182.397 113 182.641C112.734 182.854 112.399 182.961 112.06 182.943C111.622 182.919 111.199 182.78 110.83 182.54C110.372 182.274 109.96 181.933 109.61 181.533C109.239 181.108 108.924 180.637 108.67 180.132C108.409 179.615 108.205 179.071 108.06 178.51C107.912 177.957 107.832 177.389 107.82 176.817C107.82 176.645 107.82 176.424 107.82 176.151C107.82 175.879 107.82 175.668 107.82 175.496C107.811 175.016 107.889 174.538 108.05 174.086C108.166 173.732 108.378 173.418 108.66 173.179C108.942 172.951 109.3 172.839 109.66 172.866C110.094 172.888 110.514 173.024 110.88 173.259C111.341 173.526 111.757 173.866 112.11 174.267C112.478 174.698 112.793 175.172 113.05 175.678C113.314 176.194 113.518 176.738 113.66 177.3C113.792 177.855 113.855 178.423 113.85 178.993ZM109.85 177.885C109.87 178.302 109.976 178.71 110.16 179.084C110.317 179.409 110.563 179.682 110.87 179.87C111.17 180.051 111.41 180.061 111.59 179.87C111.696 179.758 111.777 179.624 111.829 179.479C111.881 179.333 111.902 179.178 111.89 179.023C111.902 178.832 111.902 178.64 111.89 178.449C111.901 178.251 111.901 178.053 111.89 177.854C111.878 177.437 111.776 177.028 111.59 176.655C111.433 176.327 111.182 176.053 110.87 175.869C110.768 175.792 110.643 175.75 110.515 175.75C110.387 175.75 110.262 175.792 110.16 175.869C110.054 175.982 109.972 176.115 109.919 176.261C109.866 176.406 109.842 176.561 109.85 176.716C109.85 176.877 109.85 177.068 109.85 177.29C109.85 177.512 109.8 177.703 109.81 177.885H109.85Z" fill="#FAFAFA"/>
<path d="M117.5 182.752C117.495 182.982 117.532 183.211 117.61 183.427C117.682 183.61 117.812 183.762 117.98 183.861L118.87 184.375C118.964 184.439 119.038 184.53 119.08 184.637C119.139 184.756 119.17 184.887 119.17 185.02V186.753C119.175 186.802 119.17 186.852 119.155 186.899C119.139 186.946 119.114 186.989 119.08 187.025C119.052 187.053 119.014 187.068 118.975 187.068C118.936 187.068 118.898 187.053 118.87 187.025L117.81 186.41C117.454 186.201 117.133 185.936 116.86 185.624C116.575 185.294 116.333 184.928 116.14 184.536C115.933 184.109 115.775 183.659 115.67 183.196C115.556 182.697 115.499 182.186 115.5 181.674V178.782L114.68 178.308C114.586 178.244 114.512 178.153 114.47 178.046C114.412 177.931 114.381 177.803 114.38 177.673V175.93C114.375 175.881 114.38 175.831 114.395 175.784C114.411 175.737 114.436 175.694 114.47 175.658C114.498 175.63 114.536 175.615 114.575 175.615C114.614 175.615 114.652 175.63 114.68 175.658L115.5 176.142V173.33C115.495 173.281 115.501 173.231 115.516 173.184C115.532 173.138 115.557 173.095 115.59 173.058C115.62 173.034 115.657 173.021 115.695 173.021C115.733 173.021 115.77 173.034 115.8 173.058L117.2 173.874C117.294 173.939 117.368 174.03 117.41 174.136C117.468 174.252 117.499 174.38 117.5 174.509V177.321L118.75 178.046C118.848 178.109 118.924 178.201 118.97 178.308C119.025 178.428 119.052 178.559 119.05 178.691V180.424C119.056 180.474 119.052 180.525 119.038 180.574C119.024 180.622 119.001 180.667 118.97 180.707C118.938 180.731 118.9 180.744 118.86 180.744C118.82 180.744 118.781 180.731 118.75 180.707L117.5 179.981V182.752Z" fill="#FAFAFA"/>
<path d="M124.95 181.643L126.31 182.439C126.402 182.502 126.474 182.589 126.52 182.691C126.577 182.811 126.608 182.941 126.61 183.074V184.817C126.614 184.867 126.607 184.916 126.592 184.963C126.577 185.009 126.552 185.052 126.52 185.09C126.49 185.113 126.453 185.126 126.415 185.126C126.377 185.126 126.34 185.113 126.31 185.09L124.95 184.293V190.108C124.955 190.157 124.95 190.207 124.935 190.254C124.919 190.301 124.894 190.344 124.86 190.38C124.832 190.408 124.794 190.423 124.755 190.423C124.716 190.423 124.678 190.408 124.65 190.38L123.25 189.564C123.153 189.502 123.079 189.41 123.04 189.302C122.982 189.186 122.951 189.059 122.95 188.929V183.104L122.19 182.661C122.094 182.63 122.011 182.57 121.95 182.49C121.9 182.372 121.873 182.245 121.87 182.117V180.373C121.864 180.276 121.892 180.18 121.95 180.101C121.981 180.077 122.02 180.064 122.06 180.064C122.1 180.064 122.138 180.077 122.17 180.101L122.93 180.555V180.091C122.918 179.648 122.979 179.205 123.11 178.781C123.2 178.486 123.378 178.226 123.62 178.036C123.84 177.875 124.111 177.804 124.38 177.834C124.734 177.865 125.077 177.979 125.38 178.167L126.43 178.781C126.527 178.842 126.601 178.935 126.64 179.043C126.698 179.162 126.729 179.293 126.73 179.426V181.159C126.734 181.21 126.729 181.261 126.713 181.31C126.698 181.358 126.673 181.403 126.64 181.442C126.611 181.467 126.574 181.481 126.535 181.481C126.496 181.481 126.459 181.467 126.43 181.442L125.43 180.857C125.25 180.756 125.12 180.756 125.05 180.857C124.972 181.002 124.937 181.166 124.95 181.331V181.643Z" fill="#FAFAFA"/>
<path d="M133.17 190.239C133.17 190.41 133.17 190.632 133.17 190.904C133.17 191.176 133.17 191.388 133.17 191.559C133.162 192.04 133.078 192.516 132.92 192.97C132.8 193.321 132.589 193.634 132.31 193.877C132.047 194.089 131.716 194.197 131.38 194.179C130.942 194.155 130.518 194.016 130.15 193.776C129.688 193.51 129.273 193.17 128.92 192.768C128.552 192.343 128.24 191.872 127.99 191.368C127.472 190.341 127.179 189.213 127.13 188.062C127.13 187.881 127.13 187.659 127.13 187.387C127.13 187.115 127.13 186.904 127.13 186.732C127.13 186.253 127.208 185.776 127.36 185.321C127.479 184.967 127.694 184.653 127.98 184.414C128.248 184.203 128.58 184.093 128.92 184.102C129.357 184.122 129.781 184.258 130.15 184.495C130.611 184.762 131.027 185.102 131.38 185.503C131.745 185.936 132.061 186.409 132.32 186.914C132.586 187.431 132.797 187.974 132.95 188.536C133.082 189.094 133.156 189.665 133.17 190.239ZM129.17 189.121C129.181 189.541 129.284 189.953 129.47 190.33C129.627 190.658 129.878 190.932 130.19 191.116C130.295 191.191 130.421 191.232 130.55 191.232C130.679 191.232 130.805 191.191 130.91 191.116C131.016 191.004 131.097 190.87 131.149 190.725C131.201 190.579 131.221 190.424 131.21 190.269C131.21 190.108 131.21 189.917 131.21 189.695C131.21 189.473 131.21 189.282 131.21 189.1C131.197 188.683 131.095 188.274 130.91 187.901C130.749 187.575 130.499 187.302 130.19 187.115C129.89 186.944 129.65 186.924 129.47 187.115C129.364 187.227 129.283 187.361 129.231 187.506C129.179 187.652 129.158 187.807 129.17 187.962C129.159 188.153 129.159 188.345 129.17 188.536C129.146 188.73 129.133 188.925 129.13 189.121H129.17Z" fill="#FAFAFA"/>
<path d="M134.16 187.458C134.154 187.408 134.158 187.358 134.172 187.309C134.186 187.261 134.209 187.216 134.24 187.176C134.269 187.151 134.306 187.137 134.345 187.137C134.384 187.137 134.421 187.151 134.45 187.176L135.85 187.982C135.942 188.049 136.015 188.14 136.06 188.244C136.118 188.364 136.149 188.495 136.15 188.627V192.981C136.142 193.427 136.213 193.87 136.36 194.291C136.485 194.651 136.733 194.954 137.06 195.147C137.39 195.339 137.62 195.319 137.76 195.097C137.917 194.764 137.985 194.396 137.96 194.029V189.675C137.956 189.626 137.963 189.577 137.978 189.53C137.993 189.484 138.018 189.44 138.05 189.403C138.08 189.38 138.117 189.367 138.155 189.367C138.193 189.367 138.23 189.38 138.26 189.403L139.66 190.22C139.754 190.284 139.828 190.375 139.87 190.482C139.929 190.6 139.96 190.732 139.96 190.865V198.926C139.964 198.975 139.957 199.025 139.942 199.071C139.927 199.118 139.902 199.161 139.87 199.198C139.842 199.226 139.804 199.242 139.765 199.242C139.726 199.242 139.688 199.226 139.66 199.198L138.37 198.453C138.276 198.388 138.202 198.297 138.16 198.191C138.102 198.075 138.071 197.947 138.07 197.818V197.415C138.008 197.508 137.934 197.593 137.85 197.667C137.759 197.737 137.653 197.786 137.54 197.808C137.395 197.837 137.245 197.837 137.1 197.808C136.891 197.761 136.692 197.679 136.51 197.566C135.757 197.105 135.158 196.428 134.79 195.621C134.335 194.563 134.12 193.417 134.16 192.265V187.458Z" fill="#FAFAFA"/>
<path d="M147.16 203.037C147.165 203.087 147.16 203.137 147.144 203.183C147.129 203.23 147.103 203.273 147.07 203.31C147.042 203.337 147.004 203.353 146.965 203.353C146.925 203.353 146.888 203.337 146.86 203.31L145.46 202.493C145.363 202.432 145.289 202.34 145.25 202.231C145.192 202.116 145.161 201.988 145.16 201.858V197.505C145.165 197.051 145.087 196.6 144.93 196.175C144.789 195.812 144.532 195.507 144.2 195.308C143.86 195.107 143.62 195.117 143.47 195.308C143.291 195.63 143.211 195.999 143.24 196.366V200.72C143.245 200.769 143.24 200.819 143.224 200.866C143.209 200.913 143.183 200.956 143.15 200.992C143.122 201.02 143.084 201.035 143.045 201.035C143.005 201.035 142.968 201.02 142.94 200.992L141.54 200.176C141.445 200.111 141.372 200.02 141.33 199.914C141.272 199.798 141.241 199.67 141.24 199.541V191.479C141.235 191.428 141.241 191.377 141.257 191.329C141.272 191.28 141.297 191.235 141.33 191.197C141.359 191.171 141.396 191.157 141.435 191.157C141.473 191.157 141.511 191.171 141.54 191.197L142.89 191.973C142.982 192.039 143.054 192.13 143.1 192.235C143.158 192.354 143.189 192.485 143.19 192.618V193.011C143.25 192.922 143.325 192.844 143.41 192.779C143.504 192.705 143.613 192.653 143.73 192.628C143.875 192.598 144.024 192.598 144.17 192.628C144.375 192.675 144.571 192.757 144.75 192.87C145.123 193.08 145.46 193.349 145.75 193.666C146.055 194.015 146.311 194.405 146.51 194.825C146.731 195.307 146.895 195.815 147 196.336C147.124 196.946 147.185 197.568 147.18 198.19L147.16 203.037Z" fill="#FAFAFA"/>
<path d="M150.65 196.416C150.862 196.529 151.054 196.675 151.22 196.85C151.374 197.005 151.514 197.174 151.64 197.353C151.752 197.514 151.853 197.682 151.94 197.857C152.02 198.029 152.09 198.18 152.14 198.311V194.643C152.136 194.594 152.143 194.544 152.158 194.498C152.173 194.451 152.198 194.408 152.23 194.371C152.26 194.347 152.297 194.334 152.335 194.334C152.373 194.334 152.41 194.347 152.44 194.371L153.84 195.187C153.934 195.251 154.008 195.342 154.05 195.449C154.109 195.568 154.14 195.699 154.14 195.832V207.118C154.145 207.167 154.14 207.217 154.125 207.264C154.109 207.311 154.084 207.354 154.05 207.39C154.022 207.418 153.984 207.433 153.945 207.433C153.906 207.433 153.868 207.418 153.84 207.39L152.49 206.604C152.396 206.544 152.323 206.456 152.28 206.352C152.223 206.233 152.192 206.102 152.19 205.969V205.576C152.126 205.662 152.056 205.743 151.98 205.818C151.896 205.893 151.797 205.948 151.69 205.979C151.552 206.014 151.408 206.014 151.27 205.979C151.051 205.926 150.841 205.838 150.65 205.717C150.3 205.507 149.984 205.245 149.71 204.942C149.396 204.587 149.134 204.191 148.93 203.762C148.696 203.269 148.515 202.753 148.39 202.221C148.252 201.602 148.178 200.97 148.17 200.336C148.17 200.155 148.17 199.923 148.17 199.631C148.17 199.339 148.17 199.107 148.17 198.936C148.167 198.387 148.241 197.841 148.39 197.313C148.491 196.967 148.676 196.651 148.93 196.396C149.035 196.299 149.158 196.223 149.292 196.175C149.426 196.127 149.568 196.106 149.71 196.114C150.044 196.134 150.367 196.238 150.65 196.416ZM150.15 200.286C150.128 200.621 150.128 200.958 150.15 201.294C150.175 201.704 150.263 202.109 150.41 202.493C150.547 202.864 150.809 203.174 151.15 203.369C151.273 203.456 151.42 203.502 151.57 203.5C151.685 203.488 151.791 203.434 151.87 203.349C151.953 203.253 152.015 203.139 152.05 203.017C152.093 202.872 152.123 202.723 152.14 202.573C152.14 202.402 152.14 202.211 152.14 201.979C152.14 201.747 152.14 201.546 152.14 201.364C152.14 201.183 152.09 201.001 152.05 200.81C152.008 200.623 151.948 200.441 151.87 200.266C151.792 200.092 151.691 199.929 151.57 199.782C151.455 199.632 151.312 199.506 151.15 199.409C150.8 199.208 150.56 199.218 150.41 199.409C150.249 199.674 150.16 199.976 150.15 200.286Z" fill="#FAFAFA"/>
</svg>
