<svg width="164" height="80" viewBox="0 0 164 80" fill="none" xmlns="http://www.w3.org/2000/svg">
<path d="M89.2796 71.9062C90.8993 71.9343 92.1962 73.277 92.1681 74.8968C92.14 76.5165 90.7973 77.8134 89.1776 77.7853C87.5578 77.7573 86.2609 76.4146 86.289 74.7948C86.3173 73.1651 87.6598 71.8781 89.2796 71.9062ZM86.594 57.2075C86.566 58.8272 87.8629 60.1699 89.4826 60.198C91.1024 60.2261 92.4451 58.9292 92.4732 57.3094C92.5013 55.6897 91.2043 54.347 89.5846 54.3189C87.9648 54.2908 86.6223 55.5777 86.594 57.2075ZM86.8991 39.6201C86.871 41.2399 88.1679 42.5825 89.7877 42.6106C91.4074 42.6387 92.7501 41.3418 92.7782 39.7221C92.8063 38.1023 91.5094 36.7596 89.8896 36.7315C88.27 36.6934 86.9273 37.9903 86.8991 39.6201ZM87.2043 22.0227C87.1762 23.6425 88.4731 24.9852 90.0929 25.0133C91.7126 25.0414 93.0553 23.7445 93.0834 22.1247C93.1115 20.505 91.8146 19.1623 90.1948 19.1342C88.5751 19.1061 87.2324 20.403 87.2043 22.0227ZM87.5093 4.43539C87.4812 6.05515 88.7781 7.39784 90.3979 7.42594C92.0177 7.45403 93.3603 6.15712 93.3884 4.53736C93.4165 2.9176 92.1196 1.57491 90.4999 1.54682C88.8801 1.51872 87.5374 2.81563 87.5093 4.43539ZM103.876 75.0998C103.848 76.7196 105.145 78.0623 106.765 78.0904C108.385 78.1185 109.727 76.8216 109.756 75.2018C109.784 73.5821 108.487 72.2394 106.867 72.2113C105.247 72.1832 103.905 73.4701 103.876 75.0998ZM104.181 57.5125C104.153 59.1322 105.45 60.4749 107.07 60.503C108.69 60.5311 110.032 59.2342 110.061 57.6145C110.089 55.9947 108.792 54.652 107.172 54.6239C105.552 54.5958 104.21 55.8827 104.181 57.5125ZM104.486 39.9251C104.458 41.5449 105.755 42.8876 107.375 42.9157C108.995 42.9438 110.337 41.6469 110.366 40.0271C110.394 38.4073 109.097 37.0647 107.477 37.0366C105.857 36.9985 104.515 38.2954 104.486 39.9251ZM104.792 22.3278C104.764 23.9475 106.06 25.2902 107.68 25.3183C109.3 25.3464 110.643 24.0495 110.671 22.4297C110.699 20.81 109.402 19.4673 107.782 19.4392C106.162 19.4111 104.82 20.708 104.792 22.3278ZM105.097 4.74043C105.069 6.36019 106.366 7.70288 107.985 7.73097C109.605 7.75906 110.948 6.46215 110.976 4.84239C111.004 3.22264 109.707 1.87994 108.087 1.85185C106.467 1.82376 105.125 3.12067 105.097 4.74043ZM121.474 75.405C121.446 77.0248 122.743 78.3675 124.362 78.3956C125.982 78.4237 127.325 77.1268 127.353 75.507C127.381 73.8873 126.084 72.5446 124.464 72.5165C122.835 72.4882 121.502 73.7753 121.474 75.405ZM121.779 57.8177C121.751 59.4375 123.048 60.7801 124.667 60.8082C126.287 60.8363 127.63 59.5394 127.658 57.9197C127.686 56.2999 126.389 54.9572 124.769 54.9291C123.14 54.9009 121.807 56.1879 121.779 57.8177ZM122.084 40.2303C122.056 41.8501 123.353 43.1928 124.972 43.2209C126.592 43.249 127.935 41.9521 127.963 40.3323C127.991 38.7125 126.694 37.3699 125.074 37.3418C123.445 37.3035 122.112 38.6006 122.084 40.2303ZM122.389 22.633C122.361 24.2527 123.658 25.5954 125.278 25.6235C126.897 25.6516 128.24 24.3547 128.268 22.735C128.296 21.1152 126.999 19.7725 125.38 19.7444C123.75 19.7161 122.417 21.0132 122.389 22.633ZM122.694 5.04563C122.666 6.66539 123.963 8.00808 125.583 8.03618C127.202 8.06427 128.545 6.76736 128.573 5.1476C128.601 3.52784 127.304 2.18515 125.685 2.15706C124.055 2.12879 122.722 3.42587 122.694 5.04563ZM139.061 75.7101C139.033 77.3298 140.33 78.6725 141.95 78.7006C143.569 78.7287 144.912 77.4318 144.94 75.812C144.968 74.1923 143.671 72.8496 142.052 72.8215C140.422 72.7932 139.089 74.0803 139.061 75.7101ZM139.366 58.1227C139.338 59.7425 140.635 61.0852 142.255 61.1133C143.874 61.1414 145.217 59.8445 145.245 58.2247C145.273 56.6049 143.976 55.2622 142.357 55.2342C140.727 55.2059 139.394 56.493 139.366 58.1227ZM139.671 40.5354C139.643 42.1551 140.94 43.4978 142.56 43.5259C144.18 43.554 145.522 42.2571 145.55 40.6373C145.578 39.0176 144.281 37.6749 142.662 37.6468C141.032 37.6085 139.699 38.9056 139.671 40.5354ZM139.976 22.938C139.948 24.5578 141.245 25.9005 142.865 25.9286C144.485 25.9567 145.827 24.6597 145.855 23.04C145.884 21.4202 144.587 20.0775 142.967 20.0494C141.337 20.0212 140.004 21.3183 139.976 22.938ZM140.281 5.35067C140.253 6.97043 141.55 8.31312 143.17 8.34121C144.79 8.3693 146.132 7.07239 146.16 5.45263C146.189 3.83287 144.892 2.49018 143.272 2.46209C141.642 2.43382 140.31 3.73091 140.281 5.35067ZM156.648 76.0151C156.62 77.6349 157.917 78.9776 159.537 79.0057C161.157 79.0338 162.499 77.7368 162.528 76.1171C162.556 74.4973 161.259 73.1546 159.639 73.1265C158.019 73.0985 156.677 74.3854 156.648 76.0151ZM156.953 58.4278C156.925 60.0475 158.222 61.3902 159.842 61.4183C161.462 61.4464 162.804 60.1495 162.833 58.5297C162.861 56.91 161.564 55.5673 159.944 55.5392C158.324 55.5111 156.982 56.798 156.953 58.4278ZM157.258 40.8404C157.23 42.4602 158.527 43.8029 160.147 43.8309C161.767 43.859 163.11 42.5621 163.138 40.9424C163.166 39.3226 161.869 37.9799 160.249 37.9518C158.629 37.9237 157.287 39.2106 157.258 40.8404ZM157.564 23.2431C157.536 24.8628 158.833 26.2055 160.452 26.2336C162.072 26.2617 163.415 24.9648 163.443 23.345C163.471 21.7253 162.174 20.3826 160.554 20.3545C158.934 20.3264 157.592 21.6233 157.564 23.2431ZM157.869 5.6557C157.841 7.27546 159.138 8.61815 160.757 8.64624C162.377 8.67434 163.72 7.37743 163.748 5.75767C163.776 4.13791 162.479 2.79522 160.859 2.76712C159.24 2.73903 157.897 4.03594 157.869 5.6557Z" fill="#244579"/>
<path d="M3.04323 70.4101C4.66299 70.4382 5.9599 71.7809 5.93181 73.4007C5.90371 75.0204 4.56102 76.3173 2.94126 76.2893C1.3215 76.2612 0.0245916 74.9185 0.0526845 73.2987C0.0809508 71.669 1.42347 70.3821 3.04323 70.4101ZM0.357718 55.7114C0.329625 57.3311 1.62654 58.6738 3.24629 58.7019C4.86605 58.73 6.20875 57.4331 6.23684 55.8133C6.26493 54.1936 4.96802 52.8509 3.34826 52.8228C1.7285 52.7947 0.385984 54.0816 0.357718 55.7114ZM0.662752 38.124C0.634659 39.7438 1.93157 41.0865 3.55133 41.1145C5.17109 41.1426 6.51378 39.8457 6.54187 38.226C6.56997 36.6062 5.27305 35.2635 3.6533 35.2354C2.03371 35.1973 0.691018 36.4942 0.662752 38.124ZM0.967958 20.5267C0.939866 22.1464 2.23678 23.4891 3.85654 23.5172C5.47629 23.5453 6.81899 22.2484 6.84708 20.6286C6.87517 19.0089 5.57826 17.6662 3.9585 17.6381C2.33874 17.61 0.996051 18.9069 0.967958 20.5267ZM1.27299 2.9393C1.2449 4.55906 2.54181 5.90175 4.16157 5.92984C5.78133 5.95794 7.12402 4.66103 7.15211 3.04127C7.18021 1.42151 5.88329 0.0788156 4.26354 0.0507227C2.64378 0.0226297 1.30108 1.31954 1.27299 2.9393ZM17.6401 73.6037C17.612 75.2235 18.9089 76.5662 20.5286 76.5943C22.1484 76.6224 23.4911 75.3255 23.5192 73.7057C23.5473 72.086 22.2504 70.7433 20.6306 70.7152C19.0109 70.6871 17.6683 71.974 17.6401 73.6037ZM17.9451 56.0164C17.917 57.6362 19.2139 58.9788 20.8337 59.0069C22.4534 59.035 23.7961 57.7381 23.8242 56.1184C23.8523 54.4986 22.5554 53.1559 20.9356 53.1278C19.3159 53.0997 17.9734 54.3866 17.9451 56.0164ZM18.2501 38.429C18.222 40.0488 19.519 41.3915 21.1387 41.4196C22.7585 41.4477 24.1012 40.1508 24.1293 38.531C24.1573 36.9112 22.8604 35.5686 21.2407 35.5405C19.6211 35.5024 18.2784 36.7993 18.2501 38.429ZM18.5553 20.8317C18.5272 22.4514 19.8242 23.7941 21.4439 23.8222C23.0637 23.8503 24.4064 22.5534 24.4345 20.9337C24.4626 19.3139 23.1656 17.9712 21.5459 17.9431C19.9261 17.915 18.5834 19.2119 18.5553 20.8317ZM18.8604 3.24433C18.8323 4.86409 20.1292 6.20678 21.749 6.23488C23.3687 6.26297 24.7114 4.96606 24.7395 3.3463C24.7676 1.72654 23.4707 0.38385 21.8509 0.355757C20.2312 0.327664 18.8885 1.62457 18.8604 3.24433ZM35.2374 73.909C35.2093 75.5287 36.5062 76.8714 38.126 76.8995C39.7457 76.9276 41.0884 75.6307 41.1165 74.0109C41.1446 72.3912 39.8477 71.0485 38.2279 71.0204C36.5982 70.9921 35.2657 72.2792 35.2374 73.909ZM35.5424 56.3216C35.5143 57.9414 36.8113 59.284 38.431 59.3121C40.0508 59.3402 41.3935 58.0433 41.4215 56.4236C41.4496 54.8038 40.1527 53.4611 38.533 53.433C36.9032 53.4048 35.5707 54.6918 35.5424 56.3216ZM35.8475 38.7342C35.8194 40.354 37.1163 41.6967 38.736 41.7248C40.3558 41.7529 41.6985 40.456 41.7266 38.8362C41.7547 37.2165 40.4578 35.8738 38.838 35.8457C37.2084 35.8074 35.8757 37.1045 35.8475 38.7342ZM36.1527 21.1369C36.1246 22.7566 37.4215 24.0993 39.0412 24.1274C40.661 24.1555 42.0037 22.8586 42.0318 21.2389C42.0599 19.6191 40.763 18.2764 39.1432 18.2483C37.5135 18.22 36.1808 19.5171 36.1527 21.1369ZM36.4577 3.54954C36.4296 5.1693 37.7265 6.51199 39.3463 6.54008C40.966 6.56818 42.3087 5.27127 42.3368 3.65151C42.3649 2.03175 41.068 0.689056 39.4482 0.660963C37.8185 0.632697 36.4858 1.92978 36.4577 3.54954ZM52.8248 74.214C52.7967 75.8337 54.0936 77.1764 55.7134 77.2045C57.3331 77.2326 58.6757 75.9357 58.7038 74.316C58.7319 72.6962 57.4351 71.3535 55.8153 71.3254C54.1856 71.2972 52.853 72.5842 52.8248 74.214ZM53.1298 56.6266C53.1017 58.2464 54.3986 59.5891 56.0184 59.6172C57.6381 59.6453 58.9808 58.3484 59.0089 56.7286C59.037 55.1088 57.7401 53.7662 56.1204 53.7381C54.4906 53.7098 53.1581 54.9969 53.1298 56.6266ZM53.4348 39.0393C53.4068 40.659 54.7037 42.0017 56.3234 42.0298C57.9432 42.0579 59.2858 40.761 59.3139 39.1412C59.342 37.5215 58.0451 36.1788 56.4254 36.1507C54.7958 36.1124 53.4631 37.4095 53.4348 39.0393ZM53.7401 21.4419C53.712 23.0617 55.0089 24.4044 56.6286 24.4325C58.2484 24.4606 59.591 23.1636 59.6191 21.5439C59.6472 19.9241 58.3504 18.5814 56.7306 18.5533C55.1008 18.5251 53.7681 19.8222 53.7401 21.4419ZM54.0451 3.85457C54.017 5.47433 55.3139 6.81702 56.9337 6.84512C58.5534 6.87321 59.8961 5.5763 59.9241 3.95654C59.9522 2.33678 58.6554 0.99409 57.0356 0.965997C55.4059 0.937731 54.0732 2.23481 54.0451 3.85457ZM70.4121 74.519C70.384 76.1388 71.6809 77.4815 73.3007 77.5096C74.9204 77.5377 76.2631 76.2407 76.2912 74.621C76.3193 73.0012 75.0224 71.6585 73.4026 71.6305C71.7829 71.6024 70.4404 72.8893 70.4121 74.519ZM70.7171 56.9317C70.689 58.5514 71.986 59.8941 73.6057 59.9222C75.2255 59.9503 76.5682 58.6534 76.5963 57.0336C76.6243 55.4139 75.3274 54.0712 73.7077 54.0431C72.0879 54.015 70.7454 55.3019 70.7171 56.9317ZM71.0222 39.3443C70.9941 40.9641 72.291 42.3068 73.9107 42.3349C75.5305 42.3629 76.8732 41.066 76.9013 39.4463C76.9294 37.8265 75.6325 36.4838 74.0127 36.4557C72.393 36.4276 71.0504 37.7146 71.0222 39.3443ZM71.3274 21.747C71.2993 23.3667 72.5962 24.7094 74.2159 24.7375C75.8357 24.7656 77.1784 23.4687 77.2065 21.8489C77.2346 20.2292 75.9377 18.8865 74.3179 18.8584C72.6982 18.8303 71.3555 20.1272 71.3274 21.747ZM71.6324 4.15961C71.6043 5.77937 72.9012 7.12206 74.521 7.15015C76.1407 7.17824 77.4834 5.88133 77.5115 4.26157C77.5396 2.64181 76.2427 1.29912 74.6229 1.27103C73.0032 1.24294 71.6605 2.53985 71.6324 4.15961Z" fill="#244579"/>
</svg>
