<svg xmlns="http://www.w3.org/2000/svg" viewBox="0 0 64 64"><path d="M36.5 30h-3c-.3 0-.5-.2-.5-.5v-5c0-.3.2-.5.5-.5h3c.3 0 .5.2.5.5v5c0 .3-.2.5-.5.5zM34 29h2v-4h-2v4z"/><path d="M39.5 30h-3c-.3 0-.5-.2-.5-.5v-11c0-.3.2-.5.5-.5h3c.3 0 .5.2.5.5v11c0 .3-.2.5-.5.5zM37 29h2V19h-2v10zM45.5 30h-3c-.3 0-.5-.2-.5-.5v-9c0-.3.2-.5.5-.5h3c.3 0 .5.2.5.5v9c0 .3-.2.5-.5.5zM43 29h2v-8h-2v8z"/><path d="M48.5 30h-3c-.3 0-.5-.2-.5-.5v-18c0-.3.2-.5.5-.5h3c.3 0 .5.2.5.5v18c0 .3-.2.5-.5.5zM46 29h2V12h-2v17zM54.5 30h-3c-.3 0-.5-.2-.5-.5v-21c0-.3.2-.5.5-.5h3c.3 0 .5.2.5.5v21c0 .3-.2.5-.5.5zM52 29h2V9h-2v20z"/><path d="M57.5 30h-3c-.3 0-.5-.2-.5-.5v-17c0-.3.2-.5.5-.5h3c.3 0 .5.2.5.5v17c0 .3-.2.5-.5.5zM55 29h2V13h-2v16z"/><path d="M59.5 30h-30c-.3 0-.5-.2-.5-.5s.2-.5.5-.5h30c.3 0 .5.2.5.5s-.2.5-.5.5zM52.5 33h-16c-.3 0-.5-.2-.5-.5s.2-.5.5-.5h16c.3 0 .5.2.5.5s-.2.5-.5.5zM52.5 43h-15c-.3 0-.5-.2-.5-.5s.2-.5.5-.5h15c.3 0 .5.2.5.5s-.2.5-.5.5zM52.5 41h-15c-.3 0-.5-.2-.5-.5s.2-.5.5-.5h15c.3 0 .5.2.5.5s-.2.5-.5.5zM52.5 49h-15c-.3 0-.5-.2-.5-.5s.2-.5.5-.5h15c.3 0 .5.2.5.5s-.2.5-.5.5zM52.5 47h-15c-.3 0-.5-.2-.5-.5s.2-.5.5-.5h15c.3 0 .5.2.5.5s-.2.5-.5.5zM52.5 53h-15c-.3 0-.5-.2-.5-.5s.2-.5.5-.5h15c.3 0 .5.2.5.5s-.2.5-.5.5zM52.5 55h-15c-.3 0-.5-.2-.5-.5s.2-.5.5-.5h15c.3 0 .5.2.5.5s-.2.5-.5.5zM30.5 15.2c-.3 0-.5-.2-.5-.5V8.5c0-.3.2-.5.5-.5s.5.2.5.5v6.2c0 .2-.2.5-.5.5z"/><path d="M30.5 31c-.3 0-.5-.2-.5-.5V20c0-.3.2-.5.5-.5s.5.2.5.5v10.5c0 .3-.2.5-.5.5zM12.5 60c-.3 0-.5-.2-.5-.5v-12c0-.3.2-.5.5-.5s.5.2.5.5v12c0 .3-.2.5-.5.5zM13 24c-3.3 0-6-2.7-6-6s2.7-6 6-6 6 2.7 6 6-2.7 6-6 6zm0-11c-2.8 0-5 2.2-5 5s2.2 5 5 5 5-2.2 5-5-2.2-5-5-5zM34.5 43h-3c-.3 0-.5-.2-.5-.5v-3c0-.3.2-.5.5-.5h3c.3 0 .5.2.5.5v3c0 .3-.2.5-.5.5zM32 42h2v-2h-2v2zM34.5 49h-3c-.3 0-.5-.2-.5-.5v-3c0-.3.2-.5.5-.5h3c.3 0 .5.2.5.5v3c0 .3-.2.5-.5.5zM32 48h2v-2h-2v2zM34.5 55h-3c-.3 0-.5-.2-.5-.5v-3c0-.3.2-.5.5-.5h3c.3 0 .5.2.5.5v3c0 .3-.2.5-.5.5zM32 54h2v-2h-2v2z"/><path d="M14.6 60h-4.3c-1.3 0-2.4-1-2.5-2.3l-.7-12.2c-.1-.3-.3-.5-.6-.5C5.1 45 4 43.9 4 42.5v-12C4 28 6 26 8.5 26h9.9l11.2-11.3c.8-.8 2.1-.9 2.9-.2.9.8 1.1 2.1.4 3L21 33.4v9.1c0 1.4-1.1 2.5-2.5 2.5-.3 0-.5.2-.6.5l-.8 12.1C17 59 15.9 60 14.6 60zM8.5 27C6.6 27 5 28.6 5 30.5v12c0 .8.7 1.5 1.5 1.5s1.5.6 1.6 1.5l.8 12.1c.1.8.7 1.4 1.5 1.4h4.3c.8 0 1.4-.6 1.5-1.4l.8-12.1c.1-.8.7-1.5 1.6-1.5.8 0 1.5-.7 1.5-1.5v-9.3c0-.1 0-.2.1-.3l12-15.9c.4-.5.3-1.2-.2-1.6-.5-.4-1.2-.4-1.6.1L18.9 26.9c-.1.1-.2.1-.4.1h-10z"/><path d="M13 34c-.2 0-.4-.1-.5-.3l-2.5-7c-.1-.2 0-.3.1-.5.1-.1.2-.2.4-.2h5c.2 0 .3.1.4.2.1.1.1.3.1.5l-2.5 7c-.1.2-.3.3-.5.3zm-1.8-7l1.8 5 1.8-5h-3.6z"/></svg>