<svg width="167" height="293" viewBox="0 0 167 293" fill="none" xmlns="http://www.w3.org/2000/svg">
<path d="M22.5117 74.3619L86.5557 19.9827C75.1855 25.4994 64.6275 32.0998 55.0751 39.5868L45.6 47.632C36.7824 55.7429 29.0089 64.7076 22.5117 74.3619Z" fill="#72B39C"/>
<path d="M3.4043 117.577L137.447 3.76099C133.734 4.3849 130.099 5.14017 126.464 5.96111L5.99536 108.251C5.02852 111.337 4.1391 114.424 3.4043 117.577Z" fill="#72B39C"/>
<path d="M0 146.506C0 146.802 0 147.13 0 147.426L172.601 0.903809C172.253 0.903809 171.867 0.903809 171.518 0.903809C169.005 0.903809 166.529 0.969484 164.093 1.03516L0.193322 140.201C0.0773005 142.303 0 144.405 0 146.506Z" fill="#72B39C"/>
<path d="M2.66845 172.185L201.723 3.16909C199.325 2.80788 196.889 2.4795 194.491 2.2168L1.54688 166.044C1.85627 168.08 2.24304 170.149 2.66845 172.185Z" fill="#72B39C"/>
<path d="M9.16921 193.628L226.981 8.68632C224.892 8.06241 222.765 7.50416 220.638 6.97876L7.1582 188.243C7.81566 190.049 8.47307 191.855 9.16921 193.628Z" fill="#72B39C"/>
<path d="M18.6405 212.576L249.33 16.6989C247.474 15.9108 245.579 15.1227 243.684 14.3674L15.8945 207.781C16.784 209.39 17.6736 210.999 18.6405 212.576Z" fill="#72B39C"/>
<path d="M30.5521 229.454L269.209 26.8127C267.546 25.8276 265.883 24.8753 264.182 23.9558L27.1875 225.185C28.2704 226.63 29.3919 228.042 30.5521 229.454Z" fill="#72B39C"/>
<path d="M44.6248 244.493L286.877 38.798C285.408 37.6816 283.938 36.5651 282.43 35.4814L40.7188 240.717C41.995 241.965 43.3099 243.245 44.6248 244.493Z" fill="#72B39C"/>
<path d="M60.8357 257.728L302.509 52.525C301.233 51.2443 299.918 49.9637 298.603 48.7158L56.3496 254.411C57.8192 255.528 59.2887 256.644 60.8357 257.728Z" fill="#72B39C"/>
<path d="M79.0862 269.188L316.003 68.0243C314.92 66.5794 313.798 65.1674 312.638 63.7554L74.0586 266.364C75.7216 267.316 77.3845 268.269 79.0862 269.188Z" fill="#72B39C"/>
<path d="M99.6244 278.743L327.22 85.4931C326.33 83.884 325.441 82.2749 324.474 80.6987L93.9395 276.445C95.8345 277.233 97.7294 277.988 99.6244 278.743Z" fill="#72B39C"/>
<path d="M122.712 286.132L335.96 105.065C335.341 103.259 334.645 101.453 333.949 99.6797L116.369 284.425C118.458 285.049 120.585 285.607 122.712 286.132Z" fill="#72B39C"/>
<path d="M148.929 290.861L341.525 127.329C341.215 125.26 340.829 123.192 340.403 121.156L141.658 289.909C144.056 290.27 146.492 290.598 148.929 290.861Z" fill="#72B39C"/>
</svg>
