<?xml version="1.0" encoding="UTF-8"?>
<!DOCTYPE svg  PUBLIC '-//W3C//DTD SVG 1.1//EN'  'http://www.w3.org/Graphics/SVG/1.1/DTD/svg11.dtd'>
<svg width=".78192in" height="1.2058in" clip-rule="evenodd" fill-rule="evenodd" image-rendering="optimizeQuality" shape-rendering="geometricPrecision" text-rendering="geometricPrecision" version="1.1" viewBox="0 0 338.61 522.19" xml:space="preserve" xmlns="http://www.w3.org/2000/svg">
   <path d="m300.58 28.85c-420.52 247.81 60.6 145.34-204.09 493.33 434.47-331.23-132.25-131.06 204.09-493.33z" fill="#72B39C"/>
   <path d="m97.03 288.15 16.1 9.41c-33.76 8.66-71.68 15.83-113.13 20.67 35.4-10.01 67.99-20.03 97.03-30.08z" fill="#3E4095"/>
   <path d="m133.56 273.83 13.07 12.81c151-46.58 200.42-121.86 76.62-131.92 56.38 39.7 12.08 79.4-89.69 119.1z" fill="#3E4095"/>
   <path d="m51.25 382.77c185.46-53.74 293.62-107.48 217.3-161.22 156.72 12.73 35.85 129.99-217.3 161.22z" fill="#3E4095"/>
   <path d="m100.89 285.33 17.94 10.34c-6.41-3.02-12.4-6.48-17.94-10.34z" fill="#5D5AA5"/>
   <path d="m102.6 288.74 17.94 10.34c15.56 7.33 33.59 12.07 53.72 13.49-9.85-7.05-18.62-14.05-26.36-20.99-5.32-4.78-10.16-9.53-14.53-14.25-94.73-102.42 30.84-192.78 182.39-277.34-274.47 50.15-306 224.25-213.16 288.74z" fill="#3E4095"/>
   <path d="m300.58 28.85c-420.52 247.81 60.6 145.34-204.09 493.33 434.47-331.23-132.25-131.06 204.09-493.33z" fill="#72B39C"/>
   <path d="m97.03 288.15 16.1 9.41c-33.76 8.66-71.68 15.83-113.13 20.67 35.4-10.01 67.99-20.03 97.03-30.08z" fill="#3E4095"/>
   <path d="m133.56 273.83 13.07 12.81c151-46.58 200.42-121.86 76.62-131.92 56.38 39.7 12.08 79.4-89.69 119.1z" fill="#3E4095"/>
   <path d="m51.25 382.77c185.46-53.74 293.62-107.48 217.3-161.22 156.72 12.73 35.85 129.99-217.3 161.22z" fill="#3E4095"/>
   <path d="m100.89 285.33 17.94 10.34c-6.41-3.02-12.4-6.48-17.94-10.34z" fill="#5D5AA5"/>
   <path d="m102.6 288.74 17.94 10.34c15.56 7.33 33.59 12.07 53.72 13.49-9.85-7.05-18.62-14.05-26.36-20.99-5.32-4.78-10.16-9.53-14.53-14.25-94.73-102.42 30.84-192.78 182.39-277.34-274.47 50.15-306 224.25-213.16 288.74z" fill="#3E4095"/>
</svg>
