<svg width="220" height="320" viewBox="0 0 220 320" fill="none" xmlns="http://www.w3.org/2000/svg">
<path d="M22.5117 80.7124L86.5557 20.9629C75.1856 27.0244 64.6275 34.2766 55.0751 42.503L45.6 51.3428C36.7824 60.2547 29.0089 70.1047 22.5117 80.7124Z" fill="#0B315E"/>
<path d="M3.4043 128.195L137.447 3.13916C133.734 3.82469 130.099 4.65455 126.464 5.55656L5.99536 117.948C5.02852 121.339 4.1391 124.731 3.4043 128.195Z" fill="#0B315E"/>
<path d="M0 159.982C0 160.306 0 160.667 0 160.992L172.601 0C172.253 0 171.867 0 171.518 0C169.005 0 166.529 0.0721612 164.093 0.144323L0.193322 153.054C0.0773005 155.363 0 157.673 0 159.982Z" fill="#0B315E"/>
<path d="M2.66845 188.196L201.723 2.48872C199.325 2.09184 196.889 1.73103 194.491 1.44238L1.54688 181.449C1.85627 183.686 2.24304 185.959 2.66845 188.196Z" fill="#0B315E"/>
<path d="M9.16921 211.757L226.981 8.551C224.892 7.86547 222.765 7.25209 220.638 6.6748L7.1582 205.84C7.81566 207.824 8.47307 209.809 9.16921 211.757Z" fill="#0B315E"/>
<path d="M18.6405 232.576L249.33 17.3552C247.474 16.4892 245.579 15.6233 243.684 14.7935L15.8945 227.308C16.784 229.076 17.6736 230.844 18.6405 232.576Z" fill="#0B315E"/>
<path d="M30.5521 251.121L269.209 28.4676C267.546 27.3852 265.883 26.3389 264.182 25.3286L27.1875 246.431C28.2704 248.018 29.3919 249.57 30.5521 251.121Z" fill="#0B315E"/>
<path d="M44.6248 267.646L286.877 41.6368C285.408 40.4101 283.938 39.1833 282.43 37.9927L40.7188 263.496C41.995 264.867 43.3099 266.275 44.6248 267.646Z" fill="#0B315E"/>
<path d="M60.8357 282.187L302.509 56.719C301.233 55.3119 299.918 53.9048 298.603 52.5337L56.3496 278.543C57.8192 279.77 59.2887 280.997 60.8357 282.187Z" fill="#0B315E"/>
<path d="M79.0862 294.779L316.003 73.7491C314.92 72.1615 313.798 70.6101 312.638 69.0586L74.0586 291.676C75.7216 292.723 77.3845 293.769 79.0862 294.779Z" fill="#0B315E"/>
<path d="M99.6244 305.278L327.22 92.9431C326.33 91.1751 325.441 89.4072 324.474 87.6753L93.9395 302.752C95.8345 303.618 97.7294 304.448 99.6244 305.278Z" fill="#0B315E"/>
<path d="M122.712 313.397L335.96 114.448C335.341 112.464 334.645 110.479 333.949 108.531L116.369 311.521C118.458 312.206 120.585 312.819 122.712 313.397Z" fill="#0B315E"/>
<path d="M148.929 318.593L341.525 138.911C341.216 136.638 340.829 134.365 340.403 132.128L141.658 317.547C144.056 317.943 146.492 318.304 148.929 318.593Z" fill="#0B315E"/>
<path d="M171.519 320C174.187 320 176.817 319.928 179.408 319.82L342.806 167.379C342.922 164.926 343 162.472 343 160.019C343 159.802 343 159.622 343 159.405L170.861 320C171.055 319.964 171.287 320 171.519 320Z" fill="#0B315E"/>
<path d="M217.153 314.227L336.848 202.557C337.854 199.165 338.743 195.738 339.517 192.274L206.131 316.716C209.844 315.995 213.518 315.165 217.153 314.227Z" fill="#0B315E"/>
</svg>
